<svg width="685" height="685" viewBox="0 0 685 685" fill="none" xmlns="http://www.w3.org/2000/svg">
<path d="M126.259 189.06C222.255 79.8299 387.066 61.65 460.539 96.7357C489.088 110.264 515.495 127.91 538.917 149.111C541.986 151.851 544.968 154.668 547.863 157.564C556.903 166.468 565.382 175.926 573.249 185.882C582.679 197.791 591.184 210.405 598.69 223.611C609.446 242.405 617.966 262.392 624.076 283.165C628.119 296.795 630.772 310.8 631.995 324.964C634.091 351.556 632.269 378.394 628.693 404.766C628.364 407.287 628.008 409.808 627.624 412.329C627.528 413.028 627.433 413.699 627.323 414.425C623.391 440.688 617.829 467.184 605.403 490.09C591.84 515.12 544.52 584.565 493.2 586.36C466.581 587.305 443.072 569.92 418.946 557.59C380.586 538.026 337.171 534.19 294.838 533.053C252.505 531.916 209.651 533.135 168.4 522.641C127.15 512.147 86.7073 488.049 65.623 447.99C58.4579 434.372 53.019 414.754 53.0053 399.054C53.0053 352.734 60.5677 312.223 73.7745 277.028C77.9683 265.805 82.8596 254.856 88.4198 244.244C96.564 228.683 106.16 213.926 117.08 200.171L126.259 189.06Z" fill="#051539" fill-opacity="0.25"/>
<g opacity="0.7">
<path d="M126.259 189.06C222.255 79.8299 387.066 61.65 460.539 96.7357C489.088 110.264 515.495 127.91 538.917 149.111C541.986 151.851 544.968 154.668 547.863 157.564C556.903 166.468 565.382 175.926 573.249 185.882C582.679 197.791 591.184 210.405 598.69 223.611C609.446 242.405 617.966 262.392 624.076 283.165C628.119 296.795 630.772 310.8 631.995 324.964C634.091 351.556 632.269 378.394 628.693 404.766C628.364 407.287 628.008 409.808 627.624 412.329C627.528 413.028 627.433 413.699 627.323 414.425C623.391 440.688 617.829 467.184 605.403 490.09C591.84 515.12 544.52 584.565 493.2 586.36C466.581 587.305 443.072 569.92 418.946 557.59C380.586 538.026 337.171 534.19 294.838 533.053C252.505 531.916 209.651 533.135 168.4 522.641C127.15 512.147 86.7073 488.049 65.623 447.99C58.4579 434.372 53.019 414.754 53.0053 399.054C53.0053 352.734 60.5677 312.223 73.7745 277.028C77.9683 265.805 82.8596 254.856 88.4198 244.244C96.564 228.683 106.16 213.926 117.08 200.171L126.259 189.06Z" fill="white"/>
</g>
<path d="M53.0053 584.771H642.174" stroke="#263238" stroke-linecap="round" stroke-linejoin="round"/>
<path d="M506.42 386.025V386.176C506.42 386.422 506.475 386.683 506.585 386.957C507.197 389.959 507.655 392.99 507.955 396.04C508.215 398.656 508.421 401.643 508.475 404.972C508.605 412.666 508.078 420.357 506.9 427.961C506.599 429.961 506.242 432.071 505.818 434.18C505.146 437.66 504.324 441.304 503.311 445.072C502.858 446.826 502.338 448.62 501.79 450.429L501.146 452.634C500.899 453.525 500.653 454.415 500.42 455.374C498.845 461.461 497.588 467.625 496.652 473.842C495.488 481.582 494.762 489.268 494.364 496.543C493.83 506.242 493.858 515.202 494.09 522.573C494.084 522.696 494.084 522.82 494.09 522.943C494.337 530.437 494.803 536.314 495.118 539.657C495.296 541.616 495.419 542.726 495.433 542.794" stroke="#263238" stroke-linecap="round" stroke-linejoin="round"/>
<path d="M506.462 386.217C504.411 384.394 501.939 383.109 499.269 382.477L506.462 386.217Z" fill="white"/>
<path d="M506.462 386.217C504.411 384.394 501.939 383.109 499.269 382.477" stroke="#263238" stroke-linecap="round" stroke-linejoin="round"/>
<path d="M507.996 396.081L511.64 392.779" stroke="#263238" stroke-linecap="round" stroke-linejoin="round"/>
<path d="M503.352 445.086C503.161 444.124 502.876 443.183 502.502 442.277C501.962 440.948 501.228 439.706 500.324 438.592C499.649 437.755 498.881 436.996 498.036 436.331" stroke="#263238" stroke-linecap="round" stroke-linejoin="round"/>
<path d="M500.434 455.361C500.95 454.081 501.723 452.921 502.706 451.953C503.689 450.984 504.86 450.228 506.147 449.73" stroke="#263238" stroke-linecap="round" stroke-linejoin="round"/>
<path d="M494.104 506.325C495.324 504.845 496.241 499.242 496.735 496.228C496.858 495.515 496.954 494.858 497.05 494.46" fill="white"/>
<path d="M494.104 506.325C495.324 504.845 496.241 499.242 496.735 496.228C496.858 495.515 496.954 494.858 497.05 494.46" stroke="#263238" stroke-linecap="round" stroke-linejoin="round"/>
<path d="M484.72 516.49C485.125 516.449 485.534 516.449 485.939 516.49C487.733 516.664 489.447 517.324 490.895 518.398C492.343 519.472 493.471 520.92 494.159 522.587" fill="white"/>
<path d="M484.72 516.49C485.125 516.449 485.534 516.449 485.939 516.49C487.733 516.664 489.447 517.324 490.895 518.398C492.343 519.472 493.471 520.92 494.159 522.587" stroke="#263238" stroke-linecap="round" stroke-linejoin="round"/>
<path d="M505.859 434.29C505.859 434.29 506.503 412.055 494.296 403.986" stroke="#263238" stroke-linecap="round" stroke-linejoin="round"/>
<path d="M506.9 481.952C508.503 487.145 497.31 497.022 497.31 497.022C497.31 497.022 482.528 495.173 480.87 489.994C479.212 484.816 483.007 476.294 490.186 474.102C497.365 471.91 505.352 476.76 506.9 481.952Z" fill="#051539"/>
<path d="M519.353 419.028C517.983 424.508 507.352 428.44 507.352 428.44C507.352 428.44 500.05 419.905 501.42 414.398C502.79 408.89 508.695 402.835 513.654 404.109C518.613 405.383 520.778 413.521 519.353 419.028Z" fill="#051539"/>
<path d="M476.897 501.324C483.541 503.9 487.61 515.654 487.61 515.654C487.61 515.654 476.65 521.559 470.02 518.97C463.389 516.38 456.32 509.092 458.238 504.228C460.156 499.365 470.252 498.68 476.897 501.324Z" fill="#051539"/>
<path d="M491.46 436.66C492.805 437.791 494.347 438.664 496.008 439.236C496.843 439.506 497.735 439.541 498.588 439.338C499.441 439.135 500.221 438.702 500.845 438.085C502.215 436.455 501.886 433.975 500.995 431.934C499.214 428.029 492.666 421.385 487.638 423.289C480.377 426.07 488.227 434.29 491.46 436.66Z" fill="#051539"/>
<path d="M506.325 446.62C505.366 447.798 504.352 449.292 504.886 450.73C505.184 451.334 505.673 451.823 506.278 452.12C506.883 452.418 507.568 452.507 508.229 452.374C509.543 452.062 510.77 451.458 511.818 450.607C514.38 448.826 519.641 445.127 516.285 441.606C512.928 438.085 508.27 444.14 506.325 446.62Z" fill="#051539"/>
<path d="M484.884 396.93C484.331 396.962 483.802 397.167 483.372 397.517C482.942 397.866 482.632 398.341 482.487 398.875C482.267 400.15 483.322 401.259 484.336 402.04C486.884 404.013 494.543 409.301 496.241 404.191C497.858 399.369 488.254 396.56 484.884 396.93Z" fill="#051539"/>
<path d="M498.981 380.134C497.406 380.285 495.83 379.709 494.241 379.805C492.652 379.901 490.912 381.175 491.255 382.737C491.597 384.299 493.364 384.641 494.817 384.723C497.317 384.884 499.828 384.713 502.283 384.217C502.865 384.161 503.403 383.887 503.79 383.449C504.434 382.504 503.42 381.244 502.324 380.915C501.199 380.765 500.093 380.499 499.023 380.12L498.981 380.134Z" fill="#051539"/>
<path d="M514.408 390.998C515.983 390.998 517.518 390.368 519.107 390.354C520.696 390.34 522.532 391.505 522.271 393.094C522.011 394.683 520.312 395.135 518.86 395.314C516.378 395.642 513.862 395.642 511.38 395.314C510.792 395.3 510.232 395.059 509.818 394.642C509.119 393.752 510.051 392.423 511.106 392.012C512.223 391.803 513.312 391.468 514.353 391.012L514.408 390.998Z" fill="#051539"/>
<path d="M512.846 507.749C513.209 507.371 513.694 507.133 514.216 507.078C514.568 507.112 514.897 507.267 515.147 507.517C515.397 507.767 515.552 508.096 515.586 508.448C515.662 509.125 515.577 509.81 515.339 510.448C514.257 514.051 502.201 540.068 499.42 535.396C497.789 532.656 501.817 523.491 503.009 520.901C505.284 515.849 508.642 511.359 512.846 507.749Z" fill="#051539"/>
<path d="M506.968 387.71C506.968 387.71 506.242 381.394 507.763 380.86" stroke="#263238" stroke-linecap="round" stroke-linejoin="round"/>
<path d="M505.626 381.12C506.403 378.89 507.743 376.898 509.517 375.339C511.421 373.969 514.476 373.859 515.86 375.764C517.408 377.887 515.86 381.107 513.49 382.244C511.12 383.381 508.325 383.038 505.722 382.668C505.722 382.285 505.722 381.901 505.722 381.518L505.626 381.12Z" fill="#051539"/>
<path d="M512.12 584.456C499.205 586.634 486.017 586.634 473.102 584.456L457.922 539.67H527.299L512.12 584.456Z" fill="white" stroke="#263238" stroke-linecap="round" stroke-linejoin="round"/>
<path d="M247.354 260.889V261.04C247.408 261.286 247.463 261.547 247.518 261.821C248.139 264.821 248.596 267.854 248.888 270.904C249.148 273.521 249.34 276.507 249.409 279.836C249.549 287.51 249.036 295.183 247.874 302.77C247.573 304.77 247.217 306.88 246.792 308.99C246.121 312.47 245.285 316.114 244.285 319.881C243.819 321.635 243.312 323.43 242.764 325.238C242.545 325.978 242.326 326.704 242.12 327.444C241.915 328.184 241.613 329.225 241.38 330.184C239.807 336.27 238.549 342.435 237.613 348.651C236.448 356.392 235.736 364.078 235.339 371.352C234.804 381.052 234.818 390.012 235.065 397.382V397.752C235.325 405.246 235.777 411.123 236.106 414.48C236.27 416.425 236.407 417.535 236.407 417.603" stroke="#263238" stroke-linecap="round" stroke-linejoin="round"/>
<path d="M247.381 261.081C246.398 260.22 245.323 259.472 244.175 258.848C242.91 258.181 241.566 257.675 240.175 257.341" fill="white"/>
<path d="M247.381 261.081C246.398 260.22 245.323 259.472 244.175 258.848C242.91 258.181 241.566 257.675 240.175 257.341" stroke="#263238" stroke-linecap="round" stroke-linejoin="round"/>
<path d="M248.915 270.945L252.573 267.643" stroke="#263238" stroke-linecap="round" stroke-linejoin="round"/>
<path d="M244.285 319.95C244.089 318.988 243.8 318.047 243.422 317.141C242.882 315.812 242.147 314.57 241.243 313.456C240.568 312.619 239.801 311.86 238.955 311.195" stroke="#263238" stroke-linecap="round" stroke-linejoin="round"/>
<path d="M241.367 330.17C241.878 328.89 242.648 327.729 243.629 326.76C244.609 325.791 245.779 325.035 247.066 324.539" stroke="#263238" stroke-linecap="round" stroke-linejoin="round"/>
<path d="M235.023 381.189C236.243 379.709 237.174 374.106 237.668 371.092C237.777 370.379 237.887 369.722 237.969 369.325" fill="white"/>
<path d="M235.023 381.189C236.243 379.709 237.174 374.106 237.668 371.092C237.777 370.379 237.887 369.722 237.969 369.325" stroke="#263238" stroke-linecap="round" stroke-linejoin="round"/>
<path d="M225.639 391.299C226.049 391.258 226.462 391.258 226.872 391.299C228.665 391.478 230.376 392.139 231.824 393.213C233.271 394.286 234.4 395.732 235.092 397.396" fill="white"/>
<path d="M225.639 391.299C226.049 391.258 226.462 391.258 226.872 391.299C228.665 391.478 230.376 392.139 231.824 393.213C233.271 394.286 234.4 395.732 235.092 397.396" stroke="#263238" stroke-linecap="round" stroke-linejoin="round"/>
<path d="M246.778 309.099C246.778 309.099 247.436 286.864 235.215 278.795" stroke="#263238" stroke-linecap="round" stroke-linejoin="round"/>
<path d="M247.888 356.817C249.477 362.009 238.298 371.887 238.298 371.887C238.298 371.887 223.502 370.037 221.858 364.858C220.214 359.68 224.009 351.158 231.174 348.966C238.339 346.774 246.285 351.638 247.888 356.817Z" fill="#051539"/>
<path d="M260.3 293.892C258.93 299.372 248.299 303.304 248.299 303.304C248.299 303.304 240.914 294.769 242.339 289.262C243.764 283.754 249.6 277.699 254.56 278.973C259.519 280.247 261.67 288.385 260.3 293.892Z" fill="#051539"/>
<path d="M217.83 376.188C224.475 378.778 228.557 390.519 228.557 390.519C228.557 390.519 217.597 396.423 210.953 393.834C204.308 391.245 197.253 383.956 199.184 379.093C201.116 374.229 211.172 373.599 217.83 376.188Z" fill="#051539"/>
<path d="M232.393 311.524C233.733 312.655 235.271 313.528 236.928 314.1C237.762 314.37 238.654 314.405 239.507 314.202C240.36 314 241.141 313.566 241.764 312.949C243.134 311.319 242.805 308.839 241.915 306.798C240.134 302.893 233.599 296.249 228.557 298.153C221.31 300.907 229.146 309.127 232.393 311.524Z" fill="#051539"/>
<path d="M247.244 321.498C246.299 322.676 245.285 324.238 245.805 325.608C246.103 326.212 246.593 326.701 247.197 326.998C247.802 327.296 248.488 327.385 249.148 327.252C250.463 326.943 251.691 326.338 252.738 325.485C255.299 323.717 260.56 320.005 257.204 316.484C253.847 312.963 249.258 319.005 247.244 321.498Z" fill="#051539"/>
<path d="M225.803 271.794C225.251 271.829 224.723 272.034 224.293 272.383C223.863 272.732 223.553 273.206 223.406 273.74C223.187 275.014 224.242 276.123 225.269 276.904C227.817 278.877 235.462 284.165 237.174 279.055C238.777 274.233 229.187 271.424 225.803 271.794Z" fill="#051539"/>
<path d="M239.901 254.998C238.325 255.149 236.75 254.573 235.174 254.669C233.599 254.765 231.831 256.039 232.188 257.601C232.544 259.163 234.284 259.505 235.75 259.588C238.245 259.748 240.751 259.578 243.202 259.081C243.788 259.026 244.331 258.752 244.723 258.314C245.353 257.368 244.339 256.108 243.257 255.779C242.127 255.63 241.016 255.363 239.942 254.984L239.901 254.998Z" fill="#051539"/>
<path d="M255.327 265.862C256.916 265.862 258.451 265.232 260.026 265.218C261.602 265.205 263.451 266.369 263.204 267.958C262.958 269.548 261.232 270 259.779 270.178C257.297 270.507 254.782 270.507 252.299 270.178C251.711 270.164 251.152 269.924 250.737 269.506C250.039 268.616 250.97 267.287 252.039 266.876C253.155 266.664 254.244 266.328 255.286 265.876L255.327 265.862Z" fill="#051539"/>
<path d="M253.765 382.614C254.129 382.237 254.614 381.999 255.135 381.942C255.484 381.983 255.81 382.141 256.058 382.389C256.307 382.638 256.464 382.963 256.505 383.312C256.576 383.99 256.487 384.675 256.245 385.313C255.176 388.916 243.106 414.932 240.339 410.26C238.695 407.52 242.723 398.355 243.915 395.766C246.193 390.712 249.556 386.222 253.765 382.614Z" fill="#051539"/>
<path d="M247.888 262.602C247.888 262.602 247.162 256.286 248.696 255.752" stroke="#263238" stroke-linecap="round" stroke-linejoin="round"/>
<path d="M246.6 255.985C247.367 253.749 248.709 251.755 250.491 250.203C252.395 248.833 255.437 248.724 256.82 250.628C258.368 252.751 256.82 255.971 254.45 257.108C252.08 258.245 249.299 257.903 246.696 257.533C246.696 257.149 246.696 256.765 246.696 256.382L246.6 255.985Z" fill="#051539"/>
<path d="M73.7745 412.329V276.959" stroke="#263238" stroke-linecap="round" stroke-linejoin="round"/>
<path d="M496.419 412.329H479.692" stroke="#263238" stroke-linecap="round" stroke-linejoin="round"/>
<path d="M627.597 412.329H593.525" stroke="#263238" stroke-linecap="round" stroke-linejoin="round"/>
<path d="M478.157 206.678H538.533V149.166" stroke="#263238" stroke-linecap="round" stroke-linejoin="round"/>
<path d="M126.259 189.115H190.403V235.9H260.711" stroke="#263238" stroke-linecap="round" stroke-linejoin="round"/>
<path d="M88.4198 347.555V244.175" stroke="#263238" stroke-linecap="round" stroke-linejoin="round"/>
<path d="M117.08 199.308V280.329" stroke="#263238" stroke-linecap="round" stroke-linejoin="round"/>
<path d="M145.727 199.308V270.931" stroke="#263238" stroke-linecap="round" stroke-linejoin="round"/>
<path d="M174.374 199.308V324.594" stroke="#263238" stroke-linecap="round" stroke-linejoin="round"/>
<path d="M311.607 181.539V99.1606H428.235V181.539" stroke="#263238" stroke-linecap="round" stroke-linejoin="round"/>
<path d="M320.155 140.082V108.942H341.719" stroke="#263238" stroke-linecap="round" stroke-linejoin="round"/>
<path d="M346.459 140.082V108.942H368.023" stroke="#263238" stroke-linecap="round" stroke-linejoin="round"/>
<path d="M372.763 140.082V108.942H394.327" stroke="#263238" stroke-linecap="round" stroke-linejoin="round"/>
<path d="M399.067 140.082V108.942H420.631" stroke="#263238" stroke-linecap="round" stroke-linejoin="round"/>
<path d="M320.155 181.539V150.399H341.719" stroke="#263238" stroke-linecap="round" stroke-linejoin="round"/>
<path d="M346.459 181.539V150.399H368.023" stroke="#263238" stroke-linecap="round" stroke-linejoin="round"/>
<path d="M372.763 181.539V150.399H394.327" stroke="#263238" stroke-linecap="round" stroke-linejoin="round"/>
<path d="M399.067 181.539V150.399H420.631" stroke="#263238" stroke-linecap="round" stroke-linejoin="round"/>
<path d="M547.877 156.29V259.519" stroke="#263238" stroke-linecap="round" stroke-linejoin="round"/>
<path d="M590.223 404.766H593.525" stroke="#263238" stroke-linecap="round" stroke-linejoin="round"/>
<path d="M573.263 185.936V301.51" stroke="#263238" stroke-linecap="round" stroke-linejoin="round"/>
<path d="M598.663 375.257V404.767H618.925" stroke="#263238" stroke-linecap="round" stroke-linejoin="round"/>
<path d="M598.663 223.611V302.099" stroke="#263238" stroke-linecap="round" stroke-linejoin="round"/>
<path d="M624.049 283.165V404.766H628.666" stroke="#263238" stroke-linecap="round" stroke-linejoin="round"/>
<path d="M314.675 414.809H53.0053V584.771H314.675V414.809Z" fill="white" stroke="#263238" stroke-linecap="round" stroke-linejoin="round"/>
<path d="M53.0053 414.809L183.84 499.79L314.675 414.809H53.0053Z" fill="white" stroke="#263238" stroke-linecap="round" stroke-linejoin="round"/>
<path d="M144.508 474.239L53.0053 584.771" stroke="#263238" stroke-linecap="round" stroke-linejoin="round"/>
<path d="M223.885 474.239L315.388 584.771" stroke="#263238" stroke-linecap="round" stroke-linejoin="round"/>
<path d="M454.703 197.938H393.875C392.123 197.94 390.404 198.411 388.895 199.302C387.387 200.194 386.145 201.473 385.299 203.007C383.804 205.704 381.614 207.953 378.957 209.518C376.3 211.084 373.272 211.909 370.188 211.909C367.104 211.909 364.076 211.084 361.418 209.518C358.761 207.953 356.571 205.704 355.077 203.007C354.237 201.453 352.993 200.155 351.476 199.251C349.959 198.346 348.225 197.869 346.459 197.869H285.7C284.032 197.847 282.376 198.154 280.827 198.773C279.278 199.391 277.866 200.308 276.671 201.472C275.477 202.636 274.523 204.024 273.865 205.557C273.207 207.089 272.857 208.737 272.835 210.405V553.48C272.882 556.847 274.263 560.058 276.675 562.408C279.087 564.758 282.333 566.056 285.7 566.015H454.703C458.072 566.056 461.319 564.759 463.733 562.409C466.147 560.059 467.53 556.848 467.581 553.48V210.473C467.534 207.104 466.151 203.89 463.737 201.54C461.322 199.189 458.073 197.894 454.703 197.938Z" fill="#051539"/>
<path d="M473.513 206.678C473.52 204.367 473.071 202.077 472.192 199.94C471.313 197.803 470.02 195.86 468.388 194.224C466.757 192.587 464.818 191.288 462.684 190.402C460.549 189.516 458.261 189.06 455.95 189.06H284.467C282.161 189.058 279.877 189.511 277.747 190.392C275.616 191.273 273.68 192.566 272.048 194.195C270.417 195.825 269.123 197.76 268.241 199.891C267.358 202.021 266.903 204.304 266.903 206.61V567.18C266.903 571.834 268.752 576.298 272.044 579.59C275.335 582.881 279.799 584.73 284.453 584.73H455.95C460.605 584.73 465.071 582.881 468.364 579.59C471.657 576.3 473.509 571.836 473.513 567.18V206.678ZM467.581 553.48C467.53 556.848 466.147 560.059 463.733 562.409C461.319 564.759 458.072 566.056 454.703 566.016H285.7C282.333 566.056 279.087 564.758 276.675 562.408C274.263 560.058 272.882 556.847 272.835 553.48V210.473C272.857 208.805 273.207 207.158 273.865 205.625C274.523 204.093 275.477 202.705 276.671 201.541C277.866 200.377 279.278 199.459 280.827 198.841C282.376 198.223 284.032 197.916 285.7 197.938H346.487C348.251 197.937 349.983 198.414 351.497 199.319C353.012 200.224 354.254 201.522 355.09 203.075C356.585 205.773 358.775 208.021 361.432 209.587C364.089 211.152 367.117 211.978 370.201 211.978C373.286 211.978 376.314 211.152 378.971 209.587C381.628 208.021 383.818 205.773 385.312 203.075C386.157 201.539 387.398 200.259 388.907 199.367C390.416 198.475 392.136 198.005 393.889 198.006H454.717C456.385 197.984 458.04 198.291 459.589 198.91C461.139 199.528 462.551 200.445 463.745 201.609C464.94 202.773 465.894 204.161 466.552 205.694C467.21 207.227 467.56 208.874 467.581 210.542V553.48Z" fill="#263238"/>
<path opacity="0.2" d="M415.247 189.115L301.331 584.757L346.569 584.716L456.265 189.115H415.247Z" fill="white"/>
<path opacity="0.2" d="M398.259 189.115L277.822 584.771L284.412 584.73L402.588 189.115H398.259Z" fill="white"/>
<path d="M400.931 483.24C401.015 487.162 400.313 491.061 398.867 494.707C397.421 498.353 395.261 501.674 392.512 504.472C389.763 507.271 386.482 509.491 382.862 511.002C379.243 512.513 375.357 513.284 371.434 513.271C363.431 513.24 355.756 510.083 350.048 504.472C344.34 498.861 341.051 491.242 340.883 483.24C340.801 479.32 341.504 475.422 342.951 471.777C344.397 468.133 346.559 464.814 349.307 462.017C352.056 459.22 355.336 457.001 358.955 455.491C362.574 453.981 366.458 453.21 370.38 453.223C378.382 453.25 386.057 456.405 391.765 462.013C397.473 467.622 400.762 475.239 400.931 483.24Z" fill="white" stroke="#263238" stroke-linecap="round" stroke-linejoin="round"/>
<path d="M361.063 505.653C358.275 504.622 355.719 503.048 353.542 501.023C351.348 498.915 349.65 496.346 348.569 493.501C347.338 490.313 346.729 486.918 346.774 483.5C346.757 480.587 347.273 477.694 348.295 474.965C349.224 472.445 350.619 470.121 352.405 468.115C355.927 464.263 360.475 461.497 365.516 460.142C367.991 459.475 370.543 459.139 373.106 459.142C375.234 459.132 377.355 459.385 379.421 459.895C381.415 460.385 383.323 461.175 385.08 462.238C386.819 463.283 388.378 464.601 389.696 466.143C391.071 467.805 392.121 469.71 392.793 471.76C393.561 474.098 393.94 476.546 393.916 479.007C393.887 483.763 392.174 488.355 389.08 491.967C387.75 493.475 386.175 494.749 384.422 495.735C382.911 496.602 381.205 497.073 379.463 497.105C378.26 497.12 377.085 496.74 376.12 496.022C375.635 495.664 375.241 495.197 374.967 494.66C374.694 494.122 374.549 493.529 374.544 492.926C373.645 494.292 372.412 495.406 370.961 496.162C369.51 496.917 367.891 497.289 366.256 497.242C364.97 497.299 363.687 497.068 362.502 496.565C361.316 496.063 360.259 495.301 359.406 494.337C357.695 492.349 356.791 489.793 356.871 487.172C356.883 485.015 357.258 482.875 357.981 480.843C358.701 478.794 359.721 476.864 361.009 475.116C362.292 473.398 363.926 471.973 365.804 470.938C367.68 469.878 369.8 469.326 371.955 469.335C373.453 469.319 374.931 469.677 376.257 470.376C377.544 471.062 378.587 472.129 379.243 473.431L379.517 472.513C379.736 471.87 380.2 471.34 380.809 471.04C381.418 470.739 382.121 470.693 382.764 470.91C383.013 470.995 383.248 471.115 383.463 471.266C383.667 471.429 383.83 471.639 383.937 471.877C384.044 472.115 384.093 472.375 384.079 472.636C384.08 472.893 384.038 473.147 383.956 473.39L379.517 488.158C379.126 489.284 378.873 490.452 378.764 491.638C378.723 491.86 378.737 492.088 378.805 492.302C378.874 492.517 378.994 492.711 379.155 492.868C379.316 493.025 379.513 493.14 379.73 493.203C379.946 493.265 380.174 493.274 380.394 493.227C381.965 493.127 383.437 492.425 384.504 491.268C385.984 489.805 387.121 488.032 387.833 486.076C388.683 483.94 389.12 481.662 389.121 479.363C389.139 477.339 388.843 475.324 388.244 473.39C387.741 471.723 386.943 470.159 385.888 468.773C384.889 467.511 383.679 466.431 382.312 465.581C380.949 464.721 379.461 464.079 377.901 463.677C376.3 463.256 374.651 463.044 372.996 463.046C370.897 463.049 368.808 463.344 366.79 463.923C364.712 464.512 362.732 465.403 360.913 466.567C359.079 467.724 357.418 469.136 355.981 470.759C354.5 472.47 353.348 474.439 352.583 476.568C351.723 478.887 351.291 481.343 351.309 483.816C351.264 486.744 351.795 489.654 352.871 492.378C353.799 494.736 355.262 496.847 357.145 498.543C358.965 500.122 361.066 501.345 363.338 502.146C365.735 502.994 368.261 503.421 370.804 503.407C373.522 503.407 376.224 502.995 378.819 502.187C379.078 502.094 379.352 502.048 379.627 502.05C379.884 502.046 380.139 502.097 380.375 502.198C380.611 502.3 380.823 502.45 380.997 502.639C381.172 502.821 381.309 503.036 381.401 503.271C381.492 503.506 381.537 503.757 381.531 504.009C381.564 504.408 381.452 504.805 381.215 505.127C380.979 505.449 380.633 505.675 380.243 505.763C377.01 506.752 373.651 507.268 370.27 507.297C367.128 507.293 364.012 506.737 361.063 505.653ZM372.38 491.446C373.734 490.474 374.738 489.09 375.243 487.501L378.106 477.431L377.914 477.02C377.736 476.69 377.52 476.382 377.271 476.102C376.927 475.707 376.551 475.34 376.147 475.006C375.634 474.597 375.055 474.277 374.435 474.061C372.813 473.495 371.038 473.559 369.462 474.239C368.598 474.605 367.805 475.12 367.119 475.76C366.406 476.425 365.772 477.17 365.228 477.979C364.684 478.822 364.225 479.717 363.858 480.651C363.473 481.585 363.175 482.553 362.968 483.542C362.761 484.482 362.655 485.442 362.653 486.405C362.641 487.023 362.677 487.642 362.762 488.254C362.826 488.799 362.945 489.337 363.118 489.857C363.269 490.341 363.485 490.803 363.762 491.227C364.01 491.61 364.326 491.944 364.694 492.214C365.086 492.498 365.527 492.707 365.995 492.83C366.542 492.99 367.111 493.064 367.681 493.049C369.395 493.07 371.067 492.521 372.434 491.488L372.38 491.446Z" fill="#051539" stroke="#263238" stroke-linecap="round" stroke-linejoin="round"/>
<path d="M400.259 380.312C400.341 384.233 399.639 388.13 398.192 391.775C396.745 395.42 394.584 398.738 391.836 401.535C389.087 404.332 385.807 406.551 382.188 408.061C378.569 409.571 374.684 410.342 370.763 410.329C362.761 410.302 355.086 407.147 349.378 401.539C343.669 395.931 340.38 388.313 340.212 380.312C340.126 376.39 340.826 372.49 342.271 368.843C343.717 365.196 345.877 361.875 348.626 359.076C351.376 356.277 354.657 354.057 358.278 352.547C361.899 351.036 365.785 350.266 369.708 350.282C377.712 350.312 385.387 353.469 391.094 359.08C396.802 364.691 400.091 372.31 400.259 380.312Z" fill="white" stroke="#263238" stroke-linecap="round" stroke-linejoin="round"/>
<path d="M389.08 377.572C379.668 371.407 361.214 371.407 352.241 377.572C350.6 377.88 349.124 378.767 348.083 380.072C347.041 381.378 346.504 383.014 346.569 384.682C346.706 388.669 363.269 388.669 363.132 384.682C363.052 383.016 362.415 381.424 361.324 380.161C367.536 378.819 373.963 378.819 380.175 380.161C379.164 381.447 378.64 383.048 378.695 384.682C378.832 388.669 395.396 388.669 395.245 384.682C395.167 382.976 394.516 381.347 393.398 380.056C392.279 378.766 390.758 377.891 389.08 377.572Z" fill="#051539" stroke="#263238" stroke-linecap="round" stroke-linejoin="round"/>
<path d="M400.259 280.329C400.424 287.714 396.396 294.317 389.929 298.715V316.648L377.065 303.77C374.985 304.142 372.876 304.325 370.763 304.318C354.186 304.318 340.5 293.577 340.212 280.329C339.924 267.081 353.117 256.354 369.708 256.354C386.299 256.354 400.04 267.15 400.259 280.329Z" fill="white" stroke="#263238" stroke-linecap="round" stroke-linejoin="round"/>
<path d="M357.447 280.329C357.449 281.099 357.224 281.853 356.798 282.495C356.372 283.136 355.765 283.637 355.054 283.934C354.344 284.23 353.561 284.309 352.805 284.161C352.05 284.012 351.355 283.643 350.81 283.099C350.264 282.556 349.892 281.862 349.741 281.107C349.59 280.352 349.666 279.569 349.96 278.857C350.254 278.146 350.753 277.537 351.393 277.109C352.033 276.681 352.786 276.452 353.556 276.452C354.585 276.452 355.573 276.86 356.302 277.587C357.032 278.314 357.443 279.3 357.447 280.329Z" fill="#051539" stroke="#263238" stroke-linecap="round" stroke-linejoin="round"/>
<path d="M374.092 280.329C374.095 281.099 373.869 281.853 373.443 282.495C373.017 283.136 372.411 283.637 371.7 283.934C370.989 284.23 370.206 284.309 369.451 284.161C368.695 284.012 368.001 283.643 367.455 283.099C366.91 282.556 366.538 281.862 366.386 281.107C366.235 280.352 366.311 279.569 366.605 278.857C366.9 278.146 367.398 277.537 368.038 277.109C368.679 276.681 369.431 276.452 370.201 276.452C371.231 276.452 372.219 276.86 372.948 277.587C373.677 278.314 374.089 279.3 374.092 280.329Z" fill="#051539" stroke="#263238" stroke-linecap="round" stroke-linejoin="round"/>
<path d="M390.738 280.329C390.74 281.099 390.515 281.853 390.089 282.495C389.663 283.136 389.056 283.637 388.345 283.934C387.635 284.23 386.852 284.309 386.096 284.161C385.341 284.012 384.646 283.643 384.101 283.099C383.555 282.556 383.183 281.862 383.032 281.107C382.881 280.352 382.957 279.569 383.251 278.857C383.545 278.146 384.044 277.537 384.684 277.109C385.324 276.681 386.077 276.452 386.847 276.452C387.876 276.452 388.864 276.86 389.593 277.587C390.323 278.314 390.734 279.3 390.738 280.329Z" fill="#051539" stroke="#263238" stroke-linecap="round" stroke-linejoin="round"/>
<path d="M202.486 335.006C202 335.911 201.299 336.682 200.445 337.253C194.124 342.295 187.658 347.131 181.045 351.761C178.621 353.46 176.1 355.214 173.757 357.118C159.673 366.544 168.277 368.845 159.674 388.792C157.646 393.56 158.016 416.918 158.016 416.918H157.317C155.668 415.291 153.915 413.772 152.07 412.37C151.815 412.198 151.55 412.043 151.275 411.904C151.018 411.772 150.74 411.684 150.453 411.644C149.083 411.562 143.864 412.192 138.589 411.849L137.219 411.74C136.452 411.658 135.698 411.562 134.945 411.425C134.191 411.288 133.465 411.137 132.767 410.945C127.761 409.34 122.853 407.446 118.067 405.273L115.683 404.246L114.505 403.739L113.436 403.273L112.669 402.944L111.929 402.629C110.682 402.109 109.518 401.629 108.449 401.259C107.959 401.084 107.461 400.933 106.956 400.807C106.956 401.931 106.778 403.081 106.627 404.205C105.969 409.562 104.504 414.507 101.887 415.165C101.833 415.179 101.776 415.179 101.722 415.165C101.492 415.208 101.258 415.231 101.024 415.233H100.818C100.239 415.222 99.6648 415.115 99.1195 414.918C96.7447 413.905 94.804 412.085 93.6395 409.781C93.1191 408.809 92.8285 407.731 92.7901 406.63C92.7901 402.643 91.6804 379.12 91.6804 372.27C91.6804 365.42 93.0504 353.433 96.4617 348.98C97.7949 347.092 99.4785 345.478 101.421 344.226C103.921 342.143 106.787 340.544 109.874 339.513C113.518 338.322 121.67 335.28 127.355 333.129L118.765 336.445C120.944 340.171 125.615 346.035 134.041 346.788C141.959 347.459 146.864 340.294 149.371 335.061C149.59 335.143 163.372 332.526 166.565 332.677C176.963 333.129 185.443 327.499 189.279 325.265C190.436 324.574 191.735 324.153 193.077 324.034C194.42 323.915 195.772 324.101 197.033 324.578C198.293 325.055 199.43 325.81 200.358 326.788C201.285 327.766 201.98 328.941 202.39 330.225V330.348C202.989 331.837 203.024 333.494 202.486 335.006Z" fill="#051539" stroke="#263238" stroke-linecap="round" stroke-linejoin="round"/>
<path d="M149.22 335.143L148.59 334.924" stroke="#263238" stroke-linecap="round" stroke-linejoin="round"/>
<path d="M160.906 422.946C160.913 423.001 160.913 423.056 160.906 423.111C160.851 423.243 160.766 423.361 160.659 423.457C160.551 423.552 160.424 423.622 160.286 423.661C160.148 423.701 160.003 423.709 159.861 423.685C159.719 423.66 159.585 423.605 159.468 423.522C158.838 423.166 157.865 420.878 157.865 420.878L156.783 419.754L156.07 419.001C156.18 419.275 157.043 421.371 156.591 422.344C156.568 422.41 156.531 422.471 156.481 422.522C156.179 422.926 155.786 423.254 155.334 423.48C154.882 423.706 154.384 423.824 153.878 423.823C153.289 423.823 151.563 424.029 150.056 424.125H149.892C149.435 424.15 148.978 424.15 148.522 424.125C147.305 423.968 146.132 423.572 145.069 422.96C142.659 422.606 140.285 422.042 137.973 421.275L137.562 421.056L137.192 420.837C136.949 420.69 136.723 420.515 136.52 420.316C135.686 419.62 134.977 418.786 134.424 417.85C134.424 417.85 128.862 417.617 121.396 417.042C118.656 416.836 115.696 416.576 112.628 416.275C107.915 415.795 104.024 415.822 100.969 415.398H100.75C100.147 415.315 99.5853 415.206 99.051 415.083C97.7471 414.828 96.5414 414.211 95.5722 413.302C94.6029 412.393 93.9094 411.23 93.571 409.945C93.3916 409.337 93.2453 408.72 93.1326 408.096L95.5164 403.986C96.7588 402.989 98.1444 402.185 99.6264 401.602C101.926 400.64 104.465 400.405 106.901 400.931C107.406 401.056 107.905 401.207 108.394 401.383C109.463 401.794 110.627 402.273 111.874 402.753L112.628 403.068L113.395 403.397L114.463 403.862C120.56 406.383 127.835 409.63 132.698 411C134.159 411.383 135.648 411.648 137.151 411.795L138.521 411.904C143.795 412.247 149.001 411.617 150.385 411.699C151.769 411.781 155.152 415 157.317 416.987C157.906 417.535 158.427 417.987 158.783 418.261L158.947 418.398L159.071 418.508C159.855 419.313 160.405 420.317 160.66 421.412C160.768 421.779 160.841 422.155 160.879 422.535C160.904 422.671 160.913 422.809 160.906 422.946Z" fill="white" stroke="#263238" stroke-linecap="round" stroke-linejoin="round"/>
<path d="M160.906 422.946C160.913 423.001 160.913 423.056 160.906 423.111C160.849 423.242 160.764 423.359 160.656 423.453C160.548 423.547 160.42 423.615 160.282 423.653C160.144 423.691 160 423.698 159.859 423.673C159.718 423.648 159.584 423.592 159.468 423.508C158.791 422.722 158.249 421.828 157.865 420.864L156.783 419.754L156.07 419.015C156.166 419.234 157.057 421.371 156.605 422.357C156.582 422.424 156.544 422.485 156.495 422.535C156.343 422.738 156.169 422.921 155.974 423.083C155.384 423.558 154.65 423.819 153.892 423.823C153.289 423.823 151.577 424.015 150.083 424.125H149.892C149.435 424.15 148.978 424.15 148.522 424.125C147.313 423.963 146.146 423.573 145.083 422.974C142.673 422.613 140.299 422.045 137.986 421.275L137.589 421.083L137.219 420.864C136.982 420.708 136.758 420.534 136.548 420.343C135.701 419.642 134.982 418.798 134.424 417.85C134.424 417.85 129.027 417.617 121.711 417.055C118.971 416.85 115.806 416.576 112.628 416.261C108.298 415.836 104.723 415.713 101.832 415.261L100.942 415.096L99.9141 414.863C99.6772 413.185 99.8512 411.473 100.421 409.877C100.952 408.529 101.776 407.317 102.832 406.326C103.889 405.336 105.152 404.593 106.531 404.15C108.242 403.521 109.996 403.013 111.778 402.629L112.518 402.944L113.285 403.273L114.354 403.739C120.56 406.411 127.752 409.644 132.63 410.973C134.089 411.357 135.579 411.618 137.082 411.753L138.452 411.863C143.727 412.219 148.933 411.589 150.316 411.671C151.7 411.753 155.07 414.959 157.166 416.946C157.642 417.4 158.14 417.83 158.66 418.234L158.824 418.357L158.947 418.467C159.747 419.26 160.299 420.269 160.537 421.371C160.644 421.738 160.718 422.114 160.756 422.494C160.826 422.638 160.877 422.79 160.906 422.946Z" fill="white" stroke="#263238" stroke-linecap="round" stroke-linejoin="round"/>
<path d="M144.508 419.302C144.508 419.302 147.617 420.919 148.85 421.481C150.083 422.042 149.974 424.303 149.974 424.303" fill="white"/>
<path d="M144.508 419.302C144.508 419.302 147.617 420.919 148.85 421.481C150.083 422.042 149.974 424.303 149.974 424.303" stroke="#263238" stroke-linecap="round" stroke-linejoin="round"/>
<path d="M147.837 417.11C149.793 418.507 151.677 420.002 153.481 421.59C153.745 421.9 153.916 422.276 153.977 422.678C154.037 423.08 153.984 423.491 153.824 423.864" fill="white"/>
<path d="M147.837 417.11C149.793 418.507 151.677 420.002 153.481 421.59C153.745 421.9 153.916 422.276 153.977 422.678C154.037 423.08 153.984 423.491 153.824 423.864" stroke="#263238" stroke-linecap="round" stroke-linejoin="round"/>
<path d="M156.029 418.987C154.408 417.25 152.693 415.604 150.892 414.055L156.029 418.987Z" fill="white"/>
<path d="M156.029 418.987C154.408 417.25 152.693 415.604 150.892 414.055" stroke="#263238" stroke-linecap="round" stroke-linejoin="round"/>
<path d="M149.207 335.17C146.727 340.39 141.809 347.5 133.89 346.884C125.506 346.172 120.793 340.267 118.615 336.527C121.629 335.376 124.684 334.198 127.191 333.211C127.191 330.663 127.109 327.608 126.835 324.58C126.835 323.923 126.698 323.21 126.629 322.594C126.561 321.977 126.478 321.539 126.396 321.032H142.329C142.329 321.032 142.233 321.662 142.11 322.717C142.014 323.662 141.891 324.923 141.795 326.348C141.672 328.238 141.589 330.458 141.644 332.554C142.411 332.814 143.192 333.102 143.973 333.403L145.48 333.924C146.083 334.143 146.672 334.335 147.302 334.54L148.672 334.951C148.855 335.013 149.033 335.086 149.207 335.17Z" fill="white" stroke="#263238" stroke-linecap="round" stroke-linejoin="round"/>
<path d="M126.629 322.539C126.629 322.539 129.602 330.266 133.917 331.581C138.233 332.896 142.137 322.717 142.137 322.717C142.137 322.717 136.055 329.211 133.794 328.197C131.534 327.183 126.656 322.594 126.656 322.594" fill="#263238"/>
<path d="M124.067 279.864C120.041 283.488 116.849 287.942 114.71 292.92C112.751 297.03 111.093 301.756 112.6 306.058C113.502 308.194 114.778 310.152 116.368 311.839C119.327 315.388 123.478 325.293 126.437 328.841C126.629 322.525 121.341 312.319 121.903 307.017C122.583 302.921 123.93 298.964 125.889 295.304C127.882 290.503 130.489 285.981 133.644 281.85C135.438 279.686 141.206 275.836 135.383 275.37C131.52 275.055 126.985 277.466 124.067 279.864Z" fill="#263238" stroke="#263238" stroke-linecap="round" stroke-linejoin="round"/>
<path d="M120.341 301.4C120.341 301.4 118.299 297.441 116.149 301.195C114.6 303.935 116.834 308.25 117.793 309.853C118.111 310.309 118.542 310.675 119.044 310.915C119.545 311.155 120.101 311.261 120.656 311.223L120.341 301.4Z" fill="white" stroke="#263238" stroke-linecap="round" stroke-linejoin="round"/>
<path d="M147.165 315.703C145.856 318.29 144.151 320.657 142.11 322.717L140.877 323.991C138.329 326.512 135.575 328.512 133.767 328.101C132.191 327.786 130.136 326.17 128.122 324.101C127.615 323.594 127.122 323.046 126.629 322.498C124.436 320.099 122.554 317.434 121.026 314.566C120.601 313.49 120.329 312.36 120.217 311.209C119.872 307.778 119.753 304.327 119.861 300.879C119.861 299.66 119.861 298.687 119.861 298.139C119.861 295.756 128.794 287.467 128.794 287.467C129.034 287.379 129.293 287.351 129.547 287.385C131.083 287.665 132.564 288.192 133.931 288.947C139.343 291.577 146.891 296.797 147.439 298.783C148.275 301.674 147.96 313.127 147.165 315.703Z" fill="white" stroke="#263238" stroke-linecap="round" stroke-linejoin="round"/>
<path d="M129.424 304.715C129.424 305.674 129.068 306.455 128.67 306.455C128.273 306.455 127.876 305.702 127.876 304.715C127.876 303.729 128.232 302.948 128.67 302.948C129.109 302.948 129.424 303.756 129.424 304.715Z" fill="#263238"/>
<path d="M139.63 302.962C140.069 302.962 140.425 303.743 140.425 304.715C140.425 305.688 140.069 306.455 139.63 306.455C139.192 306.455 138.836 305.674 138.836 304.715C138.836 303.756 139.192 302.962 139.63 302.962Z" fill="#263238"/>
<path d="M124.327 300.4C124.327 300.4 125.697 297.66 130.547 298.496" stroke="#263238" stroke-linecap="round" stroke-linejoin="round"/>
<path d="M144.138 300.4C144.138 300.4 142.768 297.66 137.918 298.496" stroke="#263238" stroke-linecap="round" stroke-linejoin="round"/>
<path d="M135.164 311.415C135.657 311.384 136.127 311.195 136.504 310.877C136.882 310.559 137.147 310.128 137.26 309.647C137.26 309.647 134.602 305.537 135.411 301.51" stroke="#263238" stroke-linecap="round" stroke-linejoin="round"/>
<path d="M118.615 291.81C117.511 293.307 116.676 294.986 116.149 296.769" stroke="white" stroke-linecap="round" stroke-linejoin="round"/>
<path d="M130.068 280.85C130.068 280.85 128.547 283.371 121.848 288.508C121.416 288.82 121.004 289.159 120.615 289.522" stroke="white" stroke-linecap="round" stroke-linejoin="round"/>
<path d="M108.586 361.173C107.673 374.197 106.76 387.231 105.846 400.273V399.273" fill="#263238"/>
<path d="M108.586 361.173C107.673 374.197 106.76 387.231 105.846 400.273V399.273" stroke="#263238" stroke-linecap="round" stroke-linejoin="round"/>
<path d="M195.129 318.169C196.367 317.685 197.705 317.512 199.026 317.665C200.347 317.818 201.61 318.292 202.705 319.046C204.89 320.593 206.48 322.841 207.212 325.416C208.086 327.981 207.998 330.775 206.966 333.28C206.432 334.515 205.572 335.581 204.479 336.365C203.386 337.15 202.101 337.622 200.76 337.732C198.761 337.707 196.83 337.007 195.28 335.746C190.156 331.91 187.594 321.416 195.129 318.169Z" fill="white" stroke="#263238" stroke-linecap="round" stroke-linejoin="round"/>
<path d="M206.473 274.425C206.473 274.589 206.473 275.671 206.569 275.863C207.048 277.973 208.062 283.248 205.5 284.316C206.473 287.782 208.856 310.428 208.541 321.977C208.459 325.43 207.856 329.526 204.76 331.006C199.54 333.485 194.581 327.444 195.17 322.717C196.088 316.265 195.773 309.689 196.54 303.167C197.376 296.4 198.91 289.467 197.225 282.85C196.814 282.398 194.184 277.178 193.321 275.74C192.933 275.125 192.629 274.462 192.416 273.767C192.079 271.403 191.914 269.017 191.923 266.629C192.704 265.15 193.718 266.52 194.252 267.493C194.688 268.678 194.838 269.95 194.691 271.205C194.64 271.512 194.683 271.827 194.814 272.109C194.929 272.271 195.085 272.399 195.265 272.481C195.445 272.562 195.644 272.595 195.841 272.575C197.527 272.329 197.458 270.918 197.431 269.835C197.431 266.205 197.431 262.574 197.431 258.971C197.431 258.368 197.622 256.738 198.198 256.683C198.773 256.628 199.636 257.094 199.719 259.026C199.814 261.204 199.814 267.917 199.814 267.917C199.869 267.972 199.936 268.013 200.011 268.034C200.085 268.056 200.164 268.058 200.239 268.041C200.376 268.041 200.431 267.794 200.486 267.657C201.294 264.287 202.116 260.917 202.924 257.546C203.02 257.149 203.609 256.327 204.034 256.327C205.048 256.327 205.075 257.505 205.13 257.848C205.486 259.656 202.952 267.109 202.527 268.808C202.527 269.109 202.527 269.561 202.842 269.479L206.815 261.465C206.999 260.996 207.289 260.577 207.662 260.24C208.036 259.902 208.482 259.655 208.966 259.519C209.033 259.498 209.105 259.498 209.172 259.519C209.243 259.561 209.3 259.623 209.336 259.697C209.72 260.382 209.336 261.328 209.117 262.081C208.898 262.835 205.925 268.369 204.87 270.602C204.719 270.918 204.472 271.63 204.774 271.972C205.075 272.315 205.623 271.657 205.842 271.205C206.514 269.835 207.144 268.547 207.76 267.205C207.952 266.808 208.24 266.246 208.692 266.342C211.364 266.917 207.569 272.52 206.473 274.425Z" fill="white" stroke="#263238" stroke-linecap="round" stroke-linejoin="round"/>
<path d="M199.102 273.247C200.481 274.339 201.679 275.643 202.65 277.11C203.129 277.847 203.45 278.676 203.591 279.544C203.733 280.412 203.692 281.3 203.472 282.152C203.406 282.374 203.319 282.589 203.212 282.795" fill="white"/>
<path d="M199.102 273.247C200.481 274.339 201.679 275.643 202.65 277.11C203.129 277.847 203.45 278.676 203.591 279.544C203.733 280.412 203.692 281.3 203.472 282.152C203.406 282.374 203.319 282.589 203.212 282.795" stroke="#263238" stroke-linecap="round" stroke-linejoin="round"/>
<path d="M160.509 358.83C161.959 361.754 162.935 364.889 163.4 368.119C163.797 371.352 163.92 373.887 161.715 382.97" stroke="#263238" stroke-linecap="round" stroke-linejoin="round"/>
<path d="M129.588 285.412C129.401 285.972 129.354 286.57 129.451 287.152C129.711 287.885 130.189 288.521 130.821 288.974C135.2 292.811 140.098 296.012 145.371 298.482C146.032 298.654 146.605 299.067 146.978 299.64C147.35 300.213 147.495 300.904 147.385 301.578V312.168C147.452 313.26 147.346 314.356 147.069 315.415C146.302 317.881 144.603 319.868 143.37 322.142C142.117 324.298 141.482 326.758 141.535 329.252C141.192 326.635 150.344 321.566 152.823 311.264C153.166 309.812 160.29 301.167 156.016 291.015C151.906 281.275 145.439 277.083 143.261 276.576C141.782 276.143 140.222 276.07 138.709 276.36C137.196 276.651 135.775 277.298 134.561 278.247C132.167 280.03 130.421 282.546 129.588 285.412Z" fill="#263238" stroke="#263238" stroke-linecap="round" stroke-linejoin="round"/>
<path d="M138.562 315.1C137.781 315.264 136.986 315.415 136.192 315.511C133.452 315.854 130.52 315.429 128.725 313.429C128.862 315.223 130.095 322.005 133.78 322.197C137.466 322.388 138.562 315.1 138.562 315.1Z" stroke="#263238" stroke-linecap="round" stroke-linejoin="round"/>
<path d="M135 281.275C136.58 284.862 139.098 287.957 142.288 290.235C144.603 291.892 147.248 293.084 149.371 294.975C152.111 297.482 153.906 301.455 152.851 305.058" stroke="white" stroke-linecap="round" stroke-linejoin="round"/>
<path d="M163.633 336.623C160.993 338.741 159.255 341.781 158.769 345.13C158.297 348.024 158.653 350.993 159.797 353.693" stroke="#263238" stroke-linecap="round" stroke-linejoin="round"/>
<path d="M112.6 359.228C112.381 362.817 110.148 365.927 107.983 368.818L112.6 359.228Z" fill="#263238"/>
<path d="M112.6 359.228C112.381 362.817 110.148 365.927 107.983 368.818" stroke="#263238" stroke-linecap="round" stroke-linejoin="round"/>
<path d="M107.257 386.669C108.345 388.491 109.802 390.065 111.533 391.292C113.265 392.519 115.234 393.37 117.313 393.793" stroke="#263238" stroke-linecap="round" stroke-linejoin="round"/>
<path d="M159.674 388.806C159.674 388.806 155.988 394.286 143.466 395.437" stroke="#263238" stroke-linecap="round" stroke-linejoin="round"/>
<path d="M526.491 340.788C526.491 340.788 478.746 355.584 469.759 343.897L470.979 284.289H478.226L486.747 326.279L525.874 319.114C525.874 319.114 530.889 334.65 526.491 340.788Z" fill="white"/>
<mask id="mask0_0_70" style="mask-type:luminance" maskUnits="userSpaceOnUse" x="469" y="284" width="60" height="65">
<path d="M526.491 340.788C526.491 340.788 478.746 355.584 469.759 343.897L470.979 284.289H478.226L486.747 326.279L525.874 319.114C525.874 319.114 530.889 334.65 526.491 340.788Z" fill="white"/>
</mask>
<g mask="url(#mask0_0_70)">
<path d="M506.379 342.87C503.642 343.958 501.029 345.336 498.584 346.98C501.817 348.007 505.27 346.706 508.503 345.678C512.773 344.367 517.125 343.342 521.532 342.61C521.737 341.39 520.162 338.609 519.545 337.527C518.422 335.636 518.175 335.472 516.284 336.404C512.846 338.13 509.914 341.13 506.379 342.87Z" fill="#051539"/>
</g>
<path d="M526.491 340.788C526.491 340.788 478.746 355.584 469.759 343.897L470.979 284.289H478.226L486.747 326.279L525.874 319.114C525.874 319.114 530.889 334.65 526.491 340.788Z" stroke="#263238" stroke-linecap="round" stroke-linejoin="round"/>
<path d="M521.806 342.349L530.19 393.971C529.971 427.426 545.931 422.398 557.015 422.303C569.824 422.193 589.264 409.493 579.729 389.724L583.401 318.169L561.083 316.47C553.727 315.895 523.587 316.84 521.189 320.69C514.969 330.677 521.806 342.349 521.806 342.349Z" fill="white"/>
<mask id="mask1_0_70" style="mask-type:luminance" maskUnits="userSpaceOnUse" x="518" y="316" width="66" height="107">
<path d="M521.806 342.349L530.19 393.971C529.971 427.426 545.931 422.398 557.015 422.303C569.824 422.193 589.264 409.493 579.729 389.724L583.401 318.169L561.083 316.47C553.727 315.895 523.587 316.84 521.189 320.69C514.969 330.677 521.806 342.349 521.806 342.349Z" fill="white"/>
</mask>
<g mask="url(#mask1_0_70)">
<path d="M523.121 346.61C528.1 365.447 540.042 381.693 556.535 392.067C554.749 391.784 553.006 391.283 551.343 390.573C549.67 389.853 547.796 389.751 546.055 390.286C545.634 390.437 545.248 390.67 544.917 390.971C544.587 391.272 544.32 391.636 544.13 392.04C543.94 392.445 543.832 392.883 543.812 393.33C543.792 393.776 543.861 394.222 544.013 394.642C544.413 395.284 544.957 395.824 545.602 396.218C548.323 398.13 551.297 399.651 554.439 400.739C551.683 400.456 548.899 400.669 546.219 401.369C545.726 403.753 548.384 405.479 550.48 406.643C553.824 408.615 556.688 411.306 558.864 414.521C551.508 414.537 544.158 414.957 536.848 415.781C535.884 415.997 534.877 415.901 533.971 415.507C533.023 414.801 532.385 413.755 532.19 412.589C530.561 406.89 529.614 401.017 529.368 395.094C529.231 391.765 529.368 388.409 528.93 385.107C528.576 382.504 528.092 379.92 527.477 377.366C525.349 367.484 523.719 357.524 522.586 347.487C522.08 347.528 523.121 346.61 523.121 346.61Z" fill="#051539"/>
<path d="M579.715 342.5C577.867 341.907 576.144 340.978 574.633 339.76C575.057 341.815 578.126 345.363 579.921 346.459C580.291 346.692 580.825 346.884 581.154 346.569C581.483 346.254 581.702 345.446 582.031 345.199L579.715 342.5Z" fill="#051539"/>
</g>
<path d="M521.806 342.349L530.19 393.971C529.971 427.426 545.931 422.398 557.015 422.303C569.824 422.193 589.264 409.493 579.729 389.724L583.401 318.169L561.083 316.47C553.727 315.895 523.587 316.84 521.189 320.69C514.969 330.677 521.806 342.349 521.806 342.349Z" stroke="#263238" stroke-linecap="round" stroke-linejoin="round"/>
<path d="M538.122 315.415C535.721 319.812 534.565 324.781 534.779 329.786C534.777 330.223 534.86 330.656 535.026 331.061C535.643 332.28 537.328 332.28 538.684 332.431C543.958 333.102 547.233 338.664 552.206 340.527C552.38 340.635 552.574 340.706 552.777 340.737C552.979 340.767 553.186 340.757 553.384 340.705C553.583 340.654 553.769 340.564 553.931 340.439C554.093 340.314 554.229 340.158 554.329 339.979C556.494 337.239 557.261 333.39 560.22 331.622C561.508 330.855 563.138 330.54 564.029 329.334C565.043 327.964 564.591 325.992 564.097 324.32C563.289 321.58 562.385 318.731 560.289 316.826C558.056 315.083 555.312 314.121 552.48 314.086C548.334 313.747 544.161 314.136 540.15 315.237C540.205 315.758 538.122 315.415 538.122 315.415Z" fill="#051539" stroke="#263238" stroke-linecap="round" stroke-linejoin="round"/>
<path d="M604.43 350.446C601.082 345.57 598.615 340.145 597.142 334.417C596.605 331.547 595.77 328.742 594.648 326.046C593.591 323.964 592.064 322.156 590.188 320.766C588.312 319.375 586.139 318.439 583.839 318.032C582.858 317.816 581.837 317.863 580.88 318.169C578.893 318.922 578.017 321.21 577.619 323.293C576.76 327.765 577.014 332.381 578.359 336.732C579.277 339.691 590.306 361.146 597.539 369.462C596.909 365.269 601.731 351.254 604.43 350.446Z" fill="white"/>
<mask id="mask2_0_70" style="mask-type:luminance" maskUnits="userSpaceOnUse" x="577" y="317" width="28" height="53">
<path d="M604.43 350.446C601.082 345.57 598.615 340.145 597.142 334.417C596.605 331.547 595.77 328.742 594.648 326.046C593.591 323.964 592.064 322.156 590.188 320.766C588.312 319.375 586.139 318.439 583.839 318.032C582.858 317.816 581.837 317.863 580.88 318.169C578.893 318.922 578.017 321.21 577.619 323.293C576.76 327.765 577.014 332.381 578.359 336.732C579.277 339.691 590.306 361.146 597.539 369.462C596.909 365.269 601.731 351.254 604.43 350.446Z" fill="white"/>
</mask>
<g mask="url(#mask2_0_70)">
<path d="M582.798 346.24L589.566 358.995C590.539 360.817 591.635 362.762 593.525 363.557C592.336 359.343 591.659 355 591.511 350.624C591.586 348.425 591.332 346.227 590.758 344.103C590.484 344.336 590.196 343.349 590.196 343.349C589.895 343.911 589.1 343.925 588.484 343.801C584.058 342.87 581.017 338.924 578.387 335.253C578.044 336.483 577.99 337.775 578.228 339.029C578.465 340.284 578.988 341.467 579.757 342.486C579.757 342.486 582.579 345.815 582.798 346.24Z" fill="#051539"/>
</g>
<path d="M604.43 350.446C601.082 345.57 598.615 340.145 597.142 334.417C596.605 331.547 595.77 328.742 594.648 326.046C593.591 323.964 592.064 322.156 590.188 320.766C588.312 319.375 586.139 318.439 583.839 318.032C582.858 317.816 581.837 317.863 580.88 318.169C578.893 318.922 578.017 321.21 577.619 323.293C576.76 327.765 577.014 332.381 578.359 336.732C579.277 339.691 590.306 361.146 597.539 369.462C596.909 365.269 601.731 351.254 604.43 350.446Z" stroke="#263238" stroke-linecap="round" stroke-linejoin="round"/>
<path d="M594.922 365.79C587.552 351.665 591.114 319.114 590.895 313.881L600.622 313.36C601.594 313.36 606.102 341.116 609.17 352.638C611.91 363.132 609.28 373.75 604.43 373.75C600.402 373.75 596.471 368.763 594.922 365.79Z" fill="white" stroke="#263238" stroke-linecap="round" stroke-linejoin="round"/>
<path d="M507.092 329.115C513.942 319.114 527.381 318.32 527.381 318.32" stroke="#263238" stroke-linecap="round" stroke-linejoin="round"/>
<path d="M480.664 334.718C482.736 332.815 484.36 330.475 485.418 327.868L480.664 334.718Z" fill="white"/>
<path d="M480.664 334.718C482.736 332.815 484.36 330.475 485.418 327.868" stroke="#263238" stroke-linecap="round" stroke-linejoin="round"/>
<path d="M531.56 381.983C535.464 388.381 560.755 395.218 570.838 393.752" stroke="#263238" stroke-linecap="round" stroke-linejoin="round"/>
<path d="M538.711 400.04C545.996 401.293 553.463 401.009 560.631 399.204" stroke="#263238" stroke-linecap="round" stroke-linejoin="round"/>
<path d="M572.263 337.965L577.085 344.5C577.743 345.391 578.661 346.391 579.743 346.144" stroke="#263238" stroke-linecap="round" stroke-linejoin="round"/>
<path d="M608.102 585.853C607.677 587.593 607.54 589.662 608.787 590.963C610.034 592.265 611.842 592.237 613.527 592.21L619.322 592.1C621.557 592.212 623.791 591.862 625.884 591.073C626.932 590.666 627.828 589.947 628.453 589.013C629.078 588.079 629.401 586.976 629.378 585.853C629.235 584.984 628.958 584.143 628.556 583.36C628.035 582.236 627.515 581.099 627.008 579.976C620.61 565.879 610.842 574.455 608.102 585.853Z" fill="white" stroke="#263238" stroke-linecap="round" stroke-linejoin="round"/>
<path d="M599.937 569.235C600.139 575.706 599.597 582.178 598.32 588.525C598.019 589.963 598.32 592.141 599.69 592.004C600.227 591.922 600.715 591.644 601.06 591.223C606.095 586.257 609.697 580.023 611.486 573.181C611.755 572.47 611.88 571.713 611.854 570.953C611.828 570.193 611.652 569.446 611.335 568.755C610.96 568.201 610.497 567.71 609.965 567.303C605.321 563.591 599.512 559.905 599.937 569.235Z" fill="white" stroke="#263238" stroke-linecap="round" stroke-linejoin="round"/>
<path d="M584.031 403.643C584.031 403.643 591.251 416.192 592.799 419.11C594.347 422.029 627.049 465.005 633.324 496.296C634.502 502.242 610.376 568.742 610.376 568.742L604.896 565.646C604.896 565.646 608.705 504.996 607.773 499.954C606.841 494.913 582.771 457.703 582.771 457.703C582.771 457.703 569.331 447.826 563.796 436.345L584.031 403.643Z" fill="#263238"/>
<path d="M584.812 435.085C584.812 435.085 580.702 444.236 580.702 445.551C580.702 446.867 603.307 518.298 609.951 534.821C614.153 545.461 617.856 556.348 621.062 567.481C621.062 567.481 623.638 570.865 621.692 574.331C619.747 577.797 612.006 580.072 610.417 576.975C608.828 573.879 593.169 557.795 586.565 541.794C579.962 525.792 570.673 499.05 565.385 489.09C558.459 476.363 552.31 463.228 546.972 449.757C540.328 432.756 533.533 414.425 533.533 414.425C536.293 414.674 539.065 414.751 541.835 414.658C548.357 414.436 554.814 413.292 561.015 411.26C575.455 406.41 581.702 397.122 581.702 397.122C581.702 397.122 585.278 406.808 586.209 408.685L584.812 435.085Z" fill="#263238"/>
<path d="M630.912 502.42C629.497 504.845 627.594 506.949 625.323 508.599" stroke="white" stroke-linecap="round" stroke-linejoin="round"/>
<path d="M632.68 498.433C632.474 499.101 632.227 499.755 631.94 500.393" stroke="white" stroke-linecap="round" stroke-linejoin="round"/>
<path d="M571.756 413.74C575.4 420.015 578.811 429.043 578.263 436.277C577.97 437.59 577.509 438.861 576.893 440.058" stroke="white" stroke-linecap="round" stroke-linejoin="round"/>
<path d="M549.699 420.713C550.096 424.207 550.63 430.016 549.863 433.441C549.215 436.944 547.205 440.047 544.274 442.072" stroke="white" stroke-linecap="round" stroke-linejoin="round"/>
<path d="M580.77 407.493C581.566 408.485 582.212 409.588 582.688 410.767C583.616 412.461 584.892 413.94 586.431 415.106C587.97 416.272 589.739 417.1 591.621 417.535" stroke="white" stroke-linecap="round" stroke-linejoin="round"/>
<path d="M569.139 421.494C573.975 432.071 577.674 442.674 585.182 460.649" stroke="white" stroke-linecap="round" stroke-linejoin="round"/>
<path d="M566.563 416.083C566.974 416.905 567.372 417.727 567.769 418.549" stroke="white" stroke-linecap="round" stroke-linejoin="round"/>
<path d="M606.814 496.995C609.031 501.267 611.85 505.198 615.185 508.667" stroke="white" stroke-linecap="round" stroke-linejoin="round"/>
<path d="M609.102 500.94C610.553 507.644 613.203 514.03 616.925 519.792" stroke="white" stroke-linecap="round" stroke-linejoin="round"/>
<path d="M575.044 501.283C564.371 478.514 552.987 455.922 538.999 421.494" stroke="white" stroke-linecap="round" stroke-linejoin="round"/>
<path d="M577.455 507.9C577.195 507.106 576.921 506.311 576.633 505.503" stroke="white" stroke-linecap="round" stroke-linejoin="round"/>
<path d="M614.349 577.907C611.609 574.331 591.634 546.397 586.675 533.738C583.373 525.299 580.88 519.34 578.455 510.928" stroke="white" stroke-linecap="round" stroke-linejoin="round"/>
<path d="M606.814 524.148L616.308 552.055" stroke="white" stroke-linecap="round" stroke-linejoin="round"/>
<path d="M600.416 313.374L597.539 313.607C593.894 314.255 590.149 314.081 586.579 313.1C584.291 312.538 578.989 310.894 578.359 310.785C576.784 310.448 575.193 310.192 573.592 310.017C568.755 309.73 571.208 307.921 573.222 308.003C575.879 308.127 576.77 308.072 578.811 308.223C578.565 308.086 577.811 307.935 577.797 307.346C577.797 305.907 579.688 305.976 579.688 305.976C579.688 305.976 577.619 305.099 577.907 304.017C578.195 302.934 579.578 302.647 580.455 302.729C580.455 302.729 579.291 302.167 579.346 301.564C579.592 299.235 584.373 299.071 584.373 299.071C583.217 298.554 582.134 297.886 581.154 297.085C580.796 296.699 580.546 296.227 580.428 295.715C580.402 295.47 580.443 295.224 580.545 295.001C580.647 294.777 580.807 294.586 581.009 294.446C581.211 294.306 581.446 294.222 581.691 294.205C581.936 294.187 582.181 294.235 582.401 294.345C583.638 295.168 584.831 296.055 585.976 297.002C587.456 298.057 589.168 298.729 590.73 299.674C592.252 300.977 593.48 302.588 594.333 304.4C594.58 304.784 600.416 313.374 600.416 313.374Z" fill="white" stroke="#263238" stroke-linecap="round" stroke-linejoin="round"/>
<path d="M470.979 284.289V276.74C470.961 272.952 471.515 269.183 472.623 265.561C473.253 263.561 473.993 261.821 474.664 261.56C475.911 261.108 476.459 266.164 476.459 266.164C475.521 262.11 474.921 257.986 474.664 253.834C474.664 249.436 480.582 267.698 480.582 267.698L478.226 284.289H470.979Z" fill="white" stroke="#263238" stroke-linecap="round" stroke-linejoin="round"/>
<path d="M478.13 272.013C478.846 271.461 479.38 270.707 479.664 269.849L478.13 272.013Z" fill="white"/>
<path d="M478.13 272.013C478.846 271.461 479.38 270.707 479.664 269.849" stroke="#263238" stroke-linecap="round" stroke-linejoin="round"/>
<path d="M535.506 300.03C538.064 304.338 539.479 309.228 539.616 314.237C539.862 322.566 549.507 334.225 552.261 334.787C555.014 335.349 557.563 321.635 557.439 317.484C557.316 313.333 555.782 301.866 555.782 301.866C555.782 301.866 542.588 291.892 535.506 300.03Z" fill="white" stroke="#263238" stroke-linecap="round" stroke-linejoin="round"/>
<path d="M539.383 311.059C539.383 311.059 552.028 328.307 556.987 310.771C561.947 293.235 543.082 315.566 539.383 311.059Z" fill="#263238"/>
<path d="M560.727 298.66C560.056 308.894 555.384 314.648 550 315.662C545.082 316.566 537.889 311.552 534.3 304.113C534.026 303.934 529.656 300.907 528.614 300.167C528.071 299.786 527.627 299.28 527.322 298.691C527.016 298.101 526.858 297.447 526.861 296.783C526.896 296.146 527.121 295.534 527.506 295.026C527.892 294.519 528.421 294.138 529.025 293.933H529.149C529.766 293.799 530.408 293.847 530.998 294.07C530.094 290.577 529.354 287.029 528.793 283.453C529.053 275.233 531.779 268.52 540.547 267.862C549.315 267.205 556.645 272.109 556.987 275.644C557.234 278.384 558.124 285.631 558.919 293.125C559.138 295.071 560.878 296.358 560.727 298.66Z" fill="white" stroke="#263238" stroke-linecap="round" stroke-linejoin="round"/>
<path d="M556.987 286.823C556.987 286.823 551.343 284.234 552.302 292.646C552.494 294.303 555.576 296.756 555.576 296.756C555.576 296.756 554.781 299.235 553.316 299.235" fill="white"/>
<path d="M556.987 286.823C556.987 286.823 551.343 284.234 552.302 292.646C552.494 294.303 555.576 296.756 555.576 296.756C555.576 296.756 554.781 299.235 553.316 299.235" stroke="#263238" stroke-linecap="round" stroke-linejoin="round"/>
<path d="M546.082 289.7C546.082 289.7 543.205 287.947 541.232 289.029C540.203 289.476 539.327 290.214 538.711 291.152" fill="white"/>
<path d="M546.082 289.7C546.082 289.7 543.205 287.947 541.232 289.029C540.203 289.476 539.327 290.214 538.711 291.152" stroke="#263238" stroke-linecap="round" stroke-linejoin="round"/>
<path d="M544.438 294.55C544.657 295.564 544.438 296.468 543.849 296.591C543.26 296.715 542.684 295.975 542.479 294.961C542.273 293.947 542.479 293.043 543.082 292.92C543.684 292.796 544.232 293.523 544.438 294.55Z" fill="#263238"/>
<path d="M555.562 291.591C555.782 292.605 555.562 293.509 554.973 293.632C554.384 293.755 553.809 293.016 553.603 292.015C553.398 291.015 553.603 290.084 554.192 289.974C554.781 289.865 555.357 290.591 555.562 291.591Z" fill="#263238"/>
<path d="M528.135 272.835C527.133 273.817 526.438 275.069 526.135 276.439C525.314 279.335 525.077 282.366 525.437 285.355C525.797 288.344 526.746 291.232 528.231 293.851C529.144 293.739 530.07 293.776 530.971 293.961C531.93 294.208 533.163 295.852 533.615 296.701C534.011 297.606 534.239 298.577 534.286 299.564C534.067 296.961 533.862 294.372 533.642 291.769C533.495 290.728 533.542 289.669 533.779 288.645C534.451 286.508 533.711 281.467 533.903 276.959C539.588 283.905 547.849 282.672 550.589 282.439C554.699 282.097 558.206 277.891 557.987 274.89C557.768 271.89 556.96 264.163 543.41 263.369C540.425 263.051 537.416 263.679 534.807 265.164C533.98 265.708 533.277 266.422 532.746 267.258C532.215 268.094 531.867 269.033 531.724 270.013C531.533 271.274 532.012 271.383 531.053 272C530.094 272.616 529.08 272.027 528.135 272.835Z" fill="#263238" stroke="#263238" stroke-linecap="round" stroke-linejoin="round"/>
<path d="M546.082 304.058C546.082 304.058 548.096 306.277 552.302 304.811L546.082 304.058Z" fill="white"/>
<path d="M546.082 304.058C546.082 304.058 548.096 306.277 552.302 304.811" stroke="#263238" stroke-linecap="round" stroke-linejoin="round"/>
</svg>
