<svg width="587" height="456" viewBox="0 0 587 456" fill="none" xmlns="http://www.w3.org/2000/svg">
<mask id="mask0_1_386" style="mask-type:luminance" maskUnits="userSpaceOnUse" x="15" y="109" width="556" height="304">
<path d="M570.993 109.256H15.0065V412.018H570.993V109.256Z" fill="white"/>
</mask>
<g mask="url(#mask0_1_386)">
<path d="M570.993 330.628C571.024 333.103 570.564 335.561 569.638 337.857C568.712 340.153 567.34 342.243 565.6 344.005C563.861 345.766 561.788 347.165 559.504 348.12C557.22 349.074 554.768 349.566 552.293 349.566H418.697C420.638 353.114 421.377 357.196 420.804 361.199C420.23 365.203 418.375 368.913 415.517 371.775C414.425 372.861 413.207 373.813 411.889 374.61H436.568C446.889 374.61 455.628 382.758 455.759 393.07C455.79 395.546 455.329 398.003 454.403 400.299C453.478 402.596 452.105 404.686 450.366 406.448C448.627 408.211 446.555 409.61 444.271 410.566C441.987 411.522 439.536 412.016 437.06 412.018H314.385C310.291 412.017 306.311 410.674 303.053 408.193C299.796 405.713 297.443 402.232 296.354 398.285C295.266 394.339 295.502 390.144 297.026 386.344C298.551 382.545 301.28 379.35 304.794 377.251H231.307C220.984 377.251 212.247 369.103 212.115 358.791C212.072 355.452 212.924 352.163 214.582 349.266C216.24 346.368 218.643 343.967 221.542 342.312C218.504 340.735 215.958 338.353 214.181 335.427C212.404 332.501 211.465 329.144 211.467 325.721V302.811C211.463 299.886 212.148 297.001 213.464 294.389C214.781 291.777 216.692 289.511 219.046 287.774H86.9885C76.6765 287.774 67.9485 279.646 67.7965 269.344C67.7595 266.865 68.2159 264.403 69.1391 262.102C70.0623 259.801 71.4338 257.706 73.174 255.94C74.9141 254.174 76.9881 252.771 79.2753 251.814C81.5625 250.857 84.0171 250.364 86.4965 250.365H95.8335C99.6647 250.363 103.339 248.841 106.048 246.132C108.757 243.423 110.279 239.749 110.281 235.918V235.908C110.279 232.077 108.757 228.404 106.049 225.695C103.341 222.986 99.6688 221.463 95.8385 221.461H33.7065C28.747 221.461 23.9905 219.49 20.4836 215.983C16.9767 212.477 15.0065 207.72 15.0065 202.761C15.0065 197.801 16.9767 193.045 20.4836 189.538C23.9905 186.031 28.747 184.061 33.7065 184.061H123.53C125.985 184.061 128.417 183.578 130.686 182.639C132.955 181.7 135.017 180.323 136.754 178.587C138.491 176.851 139.869 174.79 140.809 172.521C141.75 170.253 142.234 167.821 142.234 165.366C142.235 162.91 141.752 160.478 140.813 158.209C139.874 155.94 138.497 153.878 136.761 152.141C135.025 150.404 132.964 149.026 130.695 148.086C128.427 147.146 125.995 146.661 123.539 146.661H97.8905C87.5575 146.661 78.8205 138.493 78.7085 128.161C78.6811 125.688 79.1446 123.234 80.0721 120.941C80.9996 118.648 82.3727 116.562 84.1119 114.804C85.8511 113.045 87.9218 111.649 90.2042 110.697C92.4866 109.744 94.9353 109.253 97.4085 109.254H268.027C278.074 109.254 286.701 116.986 287.188 127.034C287.352 130.348 286.633 133.648 285.104 136.594H505.137C510.096 136.594 514.852 138.564 518.359 142.071C521.866 145.578 523.836 150.334 523.836 155.294C523.836 160.253 521.866 165.01 518.359 168.516C514.852 172.023 510.096 173.994 505.137 173.994H423.637C423.633 178.018 422.032 181.877 419.187 184.723C416.341 187.568 412.482 189.169 408.457 189.173H316.591C319.313 191.743 321.201 195.071 322.01 198.727C322.82 202.382 322.512 206.196 321.129 209.675C319.745 213.154 317.349 216.138 314.25 218.239C311.151 220.34 307.493 221.463 303.749 221.461H278.065C277.054 221.46 276.053 221.658 275.119 222.044C274.185 222.43 273.336 222.997 272.621 223.711C271.906 224.425 271.339 225.273 270.952 226.207C270.564 227.14 270.365 228.141 270.365 229.152V229.162C270.365 230.172 270.564 231.173 270.952 232.106C271.339 233.04 271.906 233.888 272.621 234.602C273.336 235.316 274.185 235.883 275.119 236.269C276.053 236.655 277.054 236.853 278.065 236.853H486.574C491.534 236.853 496.29 238.823 499.797 242.33C503.304 245.837 505.275 250.593 505.275 255.553C505.275 260.512 503.304 265.269 499.797 268.775C496.29 272.282 491.534 274.253 486.574 274.253H432.647C435.381 275.926 437.64 278.273 439.207 281.069C440.775 283.866 441.598 287.018 441.598 290.224V295.561C441.599 298.992 440.656 302.357 438.871 305.287C437.086 308.217 434.528 310.599 431.478 312.172H551.801C562.123 312.172 570.861 320.32 570.993 330.632" fill="#FBF8FF"/>
</g>
<path d="M458.913 183.83V206.859" stroke="#35008B" stroke-width="2" stroke-miterlimit="10" stroke-linecap="round"/>
<path d="M447.399 195.344H470.428" stroke="#35008B" stroke-width="2" stroke-miterlimit="10" stroke-linecap="round"/>
<path d="M149.122 58.3096V78.6506" stroke="#35008B" stroke-width="2" stroke-miterlimit="10" stroke-linecap="round"/>
<path d="M138.952 68.4796H159.293" stroke="#35008B" stroke-width="2" stroke-miterlimit="10" stroke-linecap="round"/>
<path d="M542.472 92.1826C542.473 94.8592 541.679 97.4758 540.192 99.7014C538.705 101.927 536.592 103.662 534.119 104.686C531.646 105.711 528.925 105.979 526.3 105.457C523.675 104.935 521.263 103.646 519.371 101.753C517.478 99.8606 516.189 97.4493 515.667 94.8241C515.144 92.1989 515.412 89.4778 516.437 87.0049C517.461 84.5321 519.195 82.4184 521.421 80.9314C523.646 79.4443 526.263 78.6506 528.939 78.6506C532.528 78.6506 535.971 80.0762 538.508 82.6139C541.046 85.1517 542.472 88.5936 542.472 92.1826Z" stroke="#35008B" stroke-width="2" stroke-miterlimit="10"/>
<path d="M37.3555 318.133C37.3565 320.809 36.5636 323.426 35.0772 325.652C33.5907 327.879 31.4775 329.614 29.0048 330.639C26.532 331.664 23.8108 331.933 21.1854 331.411C18.5599 330.89 16.1481 329.601 14.255 327.709C12.3618 325.816 11.0724 323.405 10.5499 320.78C10.0273 318.154 10.295 315.433 11.3191 312.96C12.3433 310.487 14.0778 308.373 16.3034 306.886C18.529 305.398 21.1457 304.605 23.8225 304.605C27.4108 304.605 30.8522 306.03 33.39 308.567C35.9278 311.103 37.3541 314.544 37.3555 318.133Z" stroke="#35008B" stroke-width="2" stroke-miterlimit="10"/>
<path d="M585.013 289.834C585.013 291.129 584.629 292.396 583.909 293.473C583.19 294.55 582.166 295.39 580.969 295.886C579.772 296.382 578.455 296.511 577.184 296.259C575.914 296.006 574.746 295.382 573.83 294.466C572.914 293.55 572.29 292.382 572.037 291.112C571.785 289.841 571.914 288.524 572.41 287.327C572.906 286.13 573.746 285.106 574.823 284.387C575.9 283.667 577.167 283.283 578.462 283.283C580.2 283.283 581.866 283.973 583.095 285.201C584.323 286.43 585.013 288.096 585.013 289.834Z" stroke="#35008B" stroke-width="2" stroke-miterlimit="10"/>
<path d="M84.7055 263.491C84.7055 264.786 84.3213 266.053 83.6014 267.13C82.8816 268.207 81.8585 269.047 80.6614 269.543C79.4644 270.039 78.1472 270.168 76.8765 269.916C75.6057 269.663 74.4384 269.039 73.5222 268.123C72.6061 267.207 71.9821 266.039 71.7294 264.769C71.4766 263.498 71.6063 262.181 72.1022 260.984C72.598 259.787 73.4376 258.763 74.5149 258.044C75.5923 257.324 76.8588 256.94 78.1545 256.94C79.8919 256.94 81.5582 257.63 82.7867 258.858C84.0153 260.087 84.7055 261.753 84.7055 263.491Z" stroke="#35008B" stroke-width="2" stroke-miterlimit="10"/>
<path d="M298.668 455.479C353.54 455.479 398.021 450.407 398.021 444.151C398.021 437.894 353.54 432.823 298.668 432.823C243.797 432.823 199.315 437.894 199.315 444.151C199.315 450.407 243.797 455.479 298.668 455.479Z" fill="#EDE2FD"/>
<path d="M242.273 259.747C244.881 260.022 247.219 258.13 247.495 255.522C247.77 252.913 245.878 250.575 243.27 250.3C240.661 250.025 238.323 251.916 238.048 254.525C237.773 257.133 239.664 259.471 242.273 259.747Z" fill="#F8F4FF"/>
<path d="M225.218 237.963C235.621 237.949 245.677 241.701 253.528 248.526H266.168C266.914 248.525 267.649 248.709 268.307 249.06C268.965 249.411 269.527 249.919 269.942 250.538C270.357 251.158 270.613 251.87 270.688 252.613C270.762 253.355 270.652 254.104 270.368 254.794L265.725 266.079C268.41 273.28 269.126 281.068 267.798 288.638C266.471 296.209 263.148 303.288 258.173 309.147C253.198 315.005 246.75 319.431 239.495 321.967C232.239 324.504 224.439 325.059 216.897 323.577C209.356 322.094 202.346 318.626 196.591 313.532C190.836 308.438 186.543 301.9 184.157 294.594C181.77 287.288 181.375 279.478 183.012 271.968C184.649 264.459 188.26 257.522 193.471 251.873C197.412 247.607 203.071 242.663 209.887 240.038C215.007 238.063 221.272 237.963 225.218 237.963Z" fill="white" stroke="#35008B" stroke-width="2" stroke-miterlimit="10" stroke-linecap="round"/>
<path d="M242.104 296.99C237.342 294.104 231.88 292.578 226.311 292.578C220.743 292.578 215.281 294.104 210.518 296.99" stroke="#35008B" stroke-width="2" stroke-miterlimit="10" stroke-linecap="round"/>
<path d="M209.989 274.051C210.964 274.051 211.754 273.26 211.754 272.286C211.754 271.311 210.964 270.521 209.989 270.521C209.015 270.521 208.224 271.311 208.224 272.286C208.224 273.26 209.015 274.051 209.989 274.051Z" stroke="#35008B" stroke-width="2" stroke-miterlimit="10" stroke-linecap="round"/>
<path d="M241.752 274.051C242.727 274.051 243.517 273.26 243.517 272.286C243.517 271.311 242.727 270.521 241.752 270.521C240.778 270.521 239.987 271.311 239.987 272.286C239.987 273.26 240.778 274.051 241.752 274.051Z" stroke="#35008B" stroke-width="2" stroke-miterlimit="10" stroke-linecap="round"/>
<path d="M274.65 213.805C267.486 214.152 260.325 213.054 253.594 210.577L216.059 196.804C209.454 194.38 203.39 190.68 198.215 185.913C193.039 181.146 188.853 175.407 185.896 169.022C182.939 162.638 181.268 155.734 180.979 148.703C180.691 141.673 181.79 134.655 184.213 128.05C187.027 120.379 191.556 113.451 197.453 107.797C197.316 107.929 197.384 107.863 197.453 107.797C200.23 104.911 203.408 102.441 206.889 100.463C213.42 96.8166 218.96 94.8146 224.025 93.9926" fill="#EADFFC"/>
<path d="M274.65 213.805C267.486 214.152 260.325 213.054 253.594 210.577L216.059 196.804C209.454 194.38 203.39 190.68 198.215 185.913C193.039 181.146 188.853 175.407 185.896 169.022C182.939 162.638 181.268 155.734 180.979 148.703C180.691 141.673 181.79 134.655 184.213 128.05C187.027 120.379 191.556 113.451 197.453 107.797M197.453 107.797C197.316 107.929 197.384 107.863 197.453 107.797ZM197.453 107.797C200.23 104.911 203.408 102.441 206.889 100.463C213.42 96.8166 218.96 94.8146 224.025 93.9926" stroke="#35008B" stroke-width="2" stroke-miterlimit="10" stroke-linecap="round"/>
<path d="M217.762 95.6556C229.2 91.9015 241.572 92.1217 252.87 96.2806L290.403 110.054C297.008 112.477 303.072 116.177 308.247 120.944C313.423 125.711 317.609 131.45 320.566 137.835C323.523 144.219 325.194 151.124 325.482 158.154C325.771 165.184 324.672 172.202 322.248 178.808C318.053 190.295 310.039 199.992 299.549 206.277" fill="#EADFFC"/>
<path d="M217.762 95.6556C229.2 91.9015 241.572 92.1217 252.87 96.2806L290.403 110.054C297.008 112.477 303.072 116.177 308.247 120.944C313.423 125.711 317.609 131.45 320.566 137.835C323.523 144.219 325.194 151.124 325.482 158.154C325.771 165.184 324.672 172.202 322.248 178.808C318.053 190.295 310.039 199.992 299.549 206.277" stroke="#35008B" stroke-width="2" stroke-miterlimit="10" stroke-linecap="round"/>
<path d="M267.916 192.066C267.916 192.066 263.343 190.88 262.281 190.499L220.446 175.445C216.369 174.019 212.616 171.797 209.405 168.907C206.195 166.017 203.592 162.517 201.748 158.612C199.904 154.706 198.855 150.472 198.663 146.157C198.471 141.842 199.14 137.532 200.63 133.478C203.808 125.286 210.067 118.665 218.066 115.031C226.066 111.397 235.171 111.04 243.43 114.037L285.265 129.091C302.528 135.297 312.838 151.617 306.5 168.546C300.846 183.646 294.529 194.567 292.744 195.509" fill="white"/>
<path d="M267.916 192.066C267.916 192.066 263.343 190.88 262.281 190.499L220.446 175.445C216.369 174.019 212.616 171.797 209.405 168.907C206.195 166.017 203.592 162.517 201.748 158.612C199.904 154.706 198.855 150.472 198.663 146.157C198.471 141.842 199.14 137.532 200.63 133.478C203.808 125.286 210.067 118.665 218.066 115.031C226.066 111.397 235.171 111.04 243.43 114.037L285.265 129.091C302.528 135.297 312.838 151.617 306.5 168.546C300.846 183.646 294.529 194.567 292.744 195.509" stroke="#35008B" stroke-width="2" stroke-miterlimit="10" stroke-linecap="round"/>
<path d="M364.522 210.134C357.471 208.663 345.533 209.48 338.046 211.156C324.561 214.175 312.827 222.427 305.424 234.097C298.022 245.767 295.558 259.899 298.573 273.386L307.063 311.339C309.289 321.372 314.447 330.517 321.881 337.613C326.806 342.084 332.412 345.742 338.488 348.449" fill="#EADFFC"/>
<path d="M364.522 210.134C357.471 208.663 345.533 209.48 338.046 211.156C324.561 214.175 312.827 222.427 305.424 234.097C298.022 245.767 295.558 259.899 298.573 273.386L307.063 311.339C309.289 321.372 314.447 330.517 321.881 337.613C326.806 342.084 332.412 345.742 338.488 348.449" stroke="#35008B" stroke-width="2" stroke-miterlimit="10" stroke-linecap="round"/>
<path d="M330.419 344.229C342.006 351.452 355.972 353.82 369.292 350.82C382.778 347.8 394.512 339.548 401.914 327.878C409.316 316.208 411.781 302.076 408.765 288.59L400.275 250.637C398.823 244.097 396.118 237.902 392.309 232.392C389.81 228.962 386.634 226.081 382.978 223.928" fill="#EADFFC"/>
<path d="M330.419 344.229C342.006 351.452 355.972 353.82 369.292 350.82C382.778 347.8 394.512 339.548 401.914 327.878C409.316 316.208 411.781 302.076 408.765 288.59L400.275 250.637C398.823 244.097 396.118 237.902 392.309 232.392C389.81 228.962 386.634 226.081 382.978 223.928" stroke="#35008B" stroke-width="2" stroke-miterlimit="10" stroke-linecap="round"/>
<path d="M374.199 246.725C375.893 249.48 377.115 252.5 377.815 255.658L386.305 293.611C387.201 297.362 387.342 301.253 386.721 305.059C386.099 308.865 384.727 312.51 382.685 315.781C380.643 319.053 377.97 321.885 374.824 324.115C371.677 326.344 368.118 327.926 364.355 328.768C360.591 329.61 356.698 329.695 352.901 329.02C349.104 328.344 345.48 326.92 342.238 324.831C338.996 322.742 336.202 320.029 334.018 316.851C331.834 313.673 330.303 310.092 329.515 306.317L321.025 268.364C320.972 268.125 320.925 267.886 320.817 267.364C318.909 257.899 321.145 247.376 327.785 240.55C331.412 236.819 337.352 234.891 343.067 233.613C347.066 232.719 351.208 232.683 355.222 233.506" fill="white"/>
<path d="M374.199 246.725C375.893 249.48 377.115 252.5 377.815 255.658L386.305 293.611C387.201 297.362 387.342 301.253 386.721 305.059C386.099 308.865 384.727 312.51 382.685 315.781C380.643 319.053 377.97 321.885 374.824 324.115C371.677 326.344 368.118 327.926 364.355 328.768C360.591 329.61 356.698 329.695 352.901 329.02C349.104 328.344 345.48 326.92 342.238 324.831C338.996 322.742 336.202 320.029 334.018 316.851C331.834 313.673 330.303 310.092 329.515 306.317L321.025 268.364C320.972 268.125 320.925 267.886 320.817 267.364C318.909 257.899 321.145 247.376 327.785 240.55C331.412 236.819 337.352 234.891 343.067 233.613C347.066 232.719 351.208 232.683 355.222 233.506" stroke="#35008B" stroke-width="2" stroke-miterlimit="10" stroke-linecap="round"/>
<path d="M326.102 165.597C327.442 166.533 328.682 167.605 329.802 168.797C331.975 171.106 334.975 172.458 338.145 172.556C341.314 172.653 344.392 171.487 346.702 169.316L347.093 168.95C348.178 167.93 349.051 166.706 349.663 165.349C350.275 163.992 350.614 162.527 350.659 161.039C350.705 159.551 350.458 158.068 349.93 156.676C349.403 155.283 348.607 154.008 347.587 152.924C340.765 145.571 331.826 140.521 322.008 138.472" stroke="#35008B" stroke-width="2" stroke-miterlimit="10" stroke-linecap="round"/>
<path d="M321.33 257.171C331.103 261.403 342.036 262.136 352.286 259.245C362.536 256.355 371.476 250.017 377.597 241.302C383.718 232.587 386.645 222.027 385.887 211.405C385.128 200.782 380.728 190.746 373.43 182.99C372.37 181.861 371.098 180.953 369.686 180.317C368.275 179.681 366.751 179.33 365.204 179.283C363.656 179.235 362.115 179.494 360.667 180.043C359.22 180.592 357.894 181.421 356.767 182.483C354.546 184.574 353.245 187.461 353.151 190.511C353.057 193.561 354.178 196.523 356.267 198.747L356.467 198.955C358.538 201.155 360.154 203.742 361.224 206.567C362.294 209.393 362.797 212.401 362.704 215.421C362.612 218.441 361.925 221.413 360.683 224.167C359.441 226.922 357.669 229.404 355.467 231.474C352.391 234.367 348.579 236.359 344.447 237.23C340.315 238.102 336.023 237.82 332.04 236.416" fill="white"/>
<path d="M321.33 257.171C331.103 261.403 342.036 262.136 352.286 259.245C362.536 256.355 371.476 250.017 377.597 241.302C383.718 232.587 386.645 222.027 385.887 211.405C385.128 200.782 380.728 190.746 373.43 182.99C372.37 181.861 371.098 180.953 369.686 180.317C368.275 179.681 366.751 179.33 365.204 179.283C363.656 179.235 362.115 179.494 360.667 180.043C359.22 180.592 357.894 181.421 356.767 182.483C354.546 184.574 353.245 187.461 353.151 190.511C353.057 193.561 354.178 196.523 356.267 198.747L356.467 198.955C358.538 201.155 360.154 203.742 361.224 206.567C362.294 209.393 362.797 212.401 362.704 215.421C362.612 218.441 361.925 221.413 360.683 224.167C359.441 226.922 357.669 229.404 355.467 231.474C352.391 234.367 348.579 236.359 344.447 237.23C340.315 238.102 336.023 237.82 332.04 236.416" stroke="#35008B" stroke-width="2" stroke-miterlimit="10" stroke-linecap="round"/>
<path d="M300.921 242.399L281.15 221.377C272.556 212.219 267.946 200.027 268.33 187.474C268.715 174.922 274.063 163.035 283.201 154.421C284.585 153.123 286.043 151.906 287.567 150.778L297.38 143.504" stroke="#35008B" stroke-width="2" stroke-miterlimit="10" stroke-linecap="round"/>
<path d="M314.25 221.786L298.513 205.054C294.453 200.738 291.448 195.181 291.238 189.381C291.007 183.136 294.381 176.627 299.538 171.781C301.851 169.799 304.264 167.939 306.768 166.207" stroke="#35008B" stroke-width="2" stroke-miterlimit="10" stroke-linecap="round"/>
</svg>
