<svg width="28" height="28" viewBox="0 0 28 28" fill="none" xmlns="http://www.w3.org/2000/svg">
<g id="Bold / Notifications / Bell ">
<g id="Vector">
<path d="M9.74375 23.6155C10.725 24.8628 12.2665 25.6666 14 25.6666C15.7335 25.6666 17.275 24.8628 18.2563 23.6155C15.4308 23.9983 12.5692 23.9983 9.74375 23.6155Z" fill="#051539"/>
<path d="M21.874 10.5V11.3214C21.874 12.3073 22.1553 13.271 22.6826 14.0913L23.9746 16.1013C25.1547 17.9373 24.2538 20.4329 22.2012 21.0135C16.8318 22.5323 11.1682 22.5323 5.79876 21.0135C3.74622 20.4329 2.84529 17.9373 4.02542 16.1013L5.31743 14.0913C5.84467 13.271 6.12602 12.3073 6.12602 11.3214V10.5C6.12602 5.98965 9.65132 2.33331 14 2.33331C18.3487 2.33331 21.874 5.98965 21.874 10.5Z" fill="#051539"/>
</g>
</g>
</svg>
