<svg width="14" height="14" viewBox="0 0 14 14" fill="none" xmlns="http://www.w3.org/2000/svg">
<g id="Bold / Time / Calendar Minimalistic">
<g id="Vector">
<path d="M12.8332 8.16665V6.99998C12.8332 6.51054 12.8332 6.07555 12.8256 5.68748H1.17403C1.1665 6.07555 1.1665 6.51054 1.1665 6.99998V8.16665C1.1665 10.3665 1.1665 11.4665 1.84992 12.1499C2.53334 12.8333 3.63328 12.8333 5.83317 12.8333H8.1665C10.3664 12.8333 11.4663 12.8333 12.1498 12.1499C12.8332 11.4665 12.8332 10.3665 12.8332 8.16665Z" fill="#15294B"/>
<path d="M4.52067 1.45831C4.52067 1.21669 4.3248 1.02081 4.08317 1.02081C3.84155 1.02081 3.64567 1.21669 3.64567 1.45831V2.37955C2.80606 2.44678 2.25487 2.61178 1.84992 3.01673C1.44497 3.42168 1.27997 3.97287 1.21274 4.81248H12.7869C12.7197 3.97287 12.5547 3.42168 12.1498 3.01673C11.7448 2.61178 11.1936 2.44678 10.354 2.37955V1.45831C10.354 1.21669 10.1581 1.02081 9.9165 1.02081C9.67488 1.02081 9.479 1.21669 9.479 1.45831V2.34084C9.09093 2.33331 8.65594 2.33331 8.1665 2.33331H5.83317C5.34373 2.33331 4.90874 2.33331 4.52067 2.34084V1.45831Z" fill="#15294B"/>
</g>
</g>
</svg>
