<svg width="166" height="165" viewBox="0 0 166 165" fill="none" xmlns="http://www.w3.org/2000/svg">
<g id="empty 1" clip-path="url(#clip0_7_481)">
<path id="Vector" d="M148.959 30.2129H20.2478C18.5114 30.214 16.8463 30.9042 15.6184 32.1321C14.3906 33.36 13.7003 35.025 13.6992 36.7615V154.856C13.7003 156.592 14.3906 158.257 15.6184 159.485C16.8463 160.713 18.5114 161.403 20.2478 161.404H148.959C150.696 161.403 152.361 160.713 153.589 159.485C154.817 158.257 155.508 156.592 155.509 154.856V36.7615C155.508 35.0249 154.817 33.3598 153.589 32.1319C152.361 30.904 150.696 30.2138 148.959 30.2129Z" fill="#C6C6C6"/>
<path id="Vector_2" d="M140.486 120.367H28.7224C25.106 120.367 22.1738 117.435 22.1738 113.819V9.47634C22.1738 5.85987 25.106 2.92773 28.7224 2.92773H140.486C144.103 2.92773 147.035 5.85987 147.035 9.47634V113.819C147.035 117.435 144.103 120.367 140.486 120.367Z" fill="#F9F9F9"/>
<path id="Vector_3" d="M24.2471 115.891V11.5497C24.2471 7.93319 27.1793 5.00105 30.7958 5.00105H142.56C143.837 5.00105 145.024 5.3723 146.031 6.00458C144.874 4.15847 142.826 2.92773 140.486 2.92773H28.7224C25.106 2.92773 22.1738 5.85987 22.1738 9.47634V113.819C22.1738 116.159 23.4046 118.206 25.2507 119.364C24.6184 118.357 24.2471 117.169 24.2471 115.892V115.891Z" fill="url(#paint0_linear_7_481)"/>
<path id="Vector_4" d="M126.735 24.9736H42.4746V29.7755H126.735V24.9736ZM126.735 43.3089H42.4746V48.1108H126.735V43.3089ZM126.735 61.6483H42.4746V66.4502H126.735V61.6483ZM126.735 79.9835H42.4746V84.7861H126.735V79.9835Z" fill="white"/>
<path id="Vector_5" d="M52.5156 64.4844L73.6891 85.6585H52.5156V64.4844Z" fill="url(#paint1_linear_7_481)"/>
<path id="Vector_6" d="M155.509 87.405V38.6874L147.035 30.2129V87.4043H155.509V87.405Z" fill="#C6C6C6"/>
<path id="Vector_7" d="M165.434 91.8117L156.305 156.44C155.848 159.671 153.083 162.073 149.82 162.073H19.3877C16.1249 162.073 13.3598 159.671 12.9033 156.44L0.56553 69.1114C0.00899266 65.169 3.06825 61.6465 7.04989 61.6465H47.3302C50.593 61.6465 53.3581 64.0478 53.8145 67.2781L55.4314 78.7145C55.8879 81.9455 58.653 84.3468 61.9158 84.3468H158.951C162.932 84.3468 165.992 87.8693 165.435 91.8117H165.434Z" fill="url(#paint2_linear_7_481)"/>
<path id="Vector_8" d="M133.087 133.246H36.1227C35.5912 133.245 35.078 133.051 34.6793 132.7C34.2806 132.349 34.0237 131.864 33.9567 131.337L32.7435 121.731C32.705 121.424 32.7322 121.112 32.8235 120.816C32.9147 120.52 33.0678 120.247 33.2726 120.015C33.4774 119.783 33.7293 119.597 34.0115 119.469C34.2937 119.342 34.5998 119.276 34.9095 119.275H134.3C134.609 119.276 134.915 119.342 135.198 119.469C135.48 119.597 135.732 119.783 135.937 120.015C136.141 120.247 136.295 120.52 136.386 120.816C136.477 121.112 136.504 121.424 136.466 121.731L135.252 131.337C135.186 131.864 134.929 132.349 134.53 132.7C134.131 133.051 133.618 133.245 133.087 133.246V133.246Z" fill="#D5D5D5"/>
</g>
<defs>
<linearGradient id="paint0_linear_7_481" x1="88.4443" y1="65.4803" x2="5.6265" y2="-17.3382" gradientUnits="userSpaceOnUse">
<stop stop-color="white"/>
</linearGradient>
<linearGradient id="paint1_linear_7_481" x1="66.5048" y1="89.0558" x2="40.9115" y2="63.4633" gradientUnits="userSpaceOnUse">
<stop stop-color="#C2CECE" stop-opacity="0"/>
<stop offset="0.179" stop-color="#AFBCBC" stop-opacity="0.179"/>
<stop offset="1" stop-color="#5B6A6A"/>
</linearGradient>
<linearGradient id="paint2_linear_7_481" x1="82.9999" y1="61.6465" x2="82.9999" y2="162.073" gradientUnits="userSpaceOnUse">
<stop stop-color="#EEF0F4"/>
<stop offset="0.927" stop-color="#E4E4E4"/>
</linearGradient>
<clipPath id="clip0_7_481">
<rect width="165" height="165" fill="white" transform="translate(0.5)"/>
</clipPath>
</defs>
</svg>
