<svg width="21" height="20" viewBox="0 0 21 20" fill="none" xmlns="http://www.w3.org/2000/svg">
<g id="Bold / Essentional, UI / Menu Dots ">
<g id="Vector">
<path d="M10.5002 14.1667C11.4206 14.1667 12.1668 14.9129 12.1668 15.8333C12.1668 16.7538 11.4206 17.5 10.5002 17.5C9.57969 17.5 8.8335 16.7538 8.8335 15.8333C8.8335 14.9129 9.57969 14.1667 10.5002 14.1667Z" fill="#051539"/>
<path d="M10.5002 8.33333C11.4206 8.33333 12.1668 9.07953 12.1668 10C12.1668 10.9205 11.4206 11.6667 10.5002 11.6667C9.57969 11.6667 8.8335 10.9205 8.8335 10C8.8335 9.07953 9.57969 8.33333 10.5002 8.33333Z" fill="#051539"/>
<path d="M10.5002 2.5C11.4206 2.5 12.1668 3.24619 12.1668 4.16667C12.1668 5.08714 11.4206 5.83333 10.5002 5.83333C9.57969 5.83333 8.8335 5.08714 8.8335 4.16667C8.8335 3.24619 9.57969 2.5 10.5002 2.5Z" fill="#051539"/>
</g>
</g>
</svg>
