<svg width="24" height="24" viewBox="0 0 24 24" fill="none" xmlns="http://www.w3.org/2000/svg">
<path fill-rule="evenodd" clip-rule="evenodd" d="M3.41851 0.00244141C2.36813 0.00244141 1.51651 0.854441 1.51651 1.90519V22.0956C1.51651 23.1467 2.36813 23.9983 3.41851 23.9983H20.5841C21.6345 23.9983 22.4869 23.1467 22.4869 22.0956V7.61869L15.3983 0.00244141H3.41851Z" fill="#9B64B2"/>
<path fill-rule="evenodd" clip-rule="evenodd" d="M22.4914 7.63182V8.00682H17.6917C17.6917 8.00682 15.3247 7.53432 15.3934 5.4917C15.3934 5.4917 15.4714 7.63182 17.6449 7.63182H22.4914Z" fill="#824B9E"/>
<path opacity="0.5" fill-rule="evenodd" clip-rule="evenodd" d="M15.4028 0V5.46037C15.4028 6.08137 15.8168 7.632 17.6918 7.632H22.4914L15.4028 0Z" fill="white"/>
<path d="M9.42374 20.2046C9.26849 20.2046 9.14699 20.0831 9.14699 19.9279V16.4576L7.63461 20.1172C7.61436 20.1712 7.56036 20.2046 7.49286 20.2046C7.43886 20.2046 7.38486 20.1709 7.36461 20.1172L5.85899 16.4576V19.9279C5.85899 20.0831 5.73749 20.2046 5.57549 20.2046C5.42024 20.2046 5.29874 20.0831 5.29874 19.9279V16.0792C5.29874 15.8362 5.50799 15.627 5.76486 15.627C5.94711 15.627 6.13611 15.735 6.21036 15.9105L7.49999 19.05L8.79636 15.9105C8.87061 15.735 9.05286 15.627 9.24186 15.627C9.49836 15.627 9.70799 15.8362 9.70799 16.0792V19.9279C9.70724 20.0831 9.58574 20.2046 9.42374 20.2046ZM12.7372 18.375H11.4881V19.9279C11.4881 20.0831 11.3666 20.2046 11.2046 20.2046C11.0494 20.2046 10.9279 20.0831 10.9279 19.9279V16.0657C10.9279 15.843 11.1101 15.6604 11.3332 15.6604H12.7376C13.6425 15.6604 14.1487 16.2817 14.1487 17.0175C14.1484 17.754 13.6286 18.375 12.7372 18.375ZM12.6697 16.1602H11.4881V17.8751H12.6697C13.203 17.8751 13.5679 17.5241 13.5679 17.0175C13.5679 16.5116 13.203 16.1602 12.6697 16.1602ZM17.8879 19.0234H17.4491V19.9282C17.4491 20.0835 17.3276 20.205 17.1652 20.205C17.01 20.205 16.8885 20.0835 16.8885 19.9282V19.0234H14.9846C14.8429 19.0234 14.7079 18.9019 14.7079 18.7196C14.7079 18.6589 14.7277 18.5914 14.7619 18.5374L16.5645 15.8299C16.6522 15.7016 16.8075 15.6206 16.9699 15.6206C17.2264 15.6206 17.4491 15.8434 17.4491 16.0931V18.5306H17.8879C18.0161 18.5306 18.1241 18.6386 18.1241 18.7807C18.1241 18.915 18.0157 19.0234 17.8879 19.0234ZM16.8885 16.1805L15.3086 18.5302H16.8885V16.1805Z" fill="white"/>
</svg>
