<svg width="16" height="16" viewBox="0 0 16 16" fill="none" xmlns="http://www.w3.org/2000/svg">
<g id="Linear / Messages, Conversation / Pen" clip-path="url(#clip0_1_1895)">
<path id="Vector" d="M9.57354 2.71915L10.1915 2.10123C11.2153 1.07742 12.8752 1.07742 13.899 2.10123C14.9228 3.12503 14.9228 4.78494 13.899 5.80874L13.2811 6.42666M9.57354 2.71915C9.57354 2.71915 9.65078 4.03223 10.8094 5.19082C11.968 6.34942 13.2811 6.42666 13.2811 6.42666M9.57354 2.71915L3.89271 8.39997C3.50794 8.78475 3.31555 8.97714 3.15009 9.18926C2.95492 9.4395 2.78759 9.71025 2.65106 9.99672C2.53532 10.2396 2.44928 10.4977 2.2772 11.0139L1.54803 13.2014M13.2811 6.42666L7.60023 12.1075C7.21546 12.4923 7.02307 12.6847 6.81094 12.8501C6.56071 13.0453 6.28996 13.2126 6.00348 13.3491C5.76063 13.4649 5.50251 13.5509 4.98628 13.723L2.79878 14.4522M2.79878 14.4522L2.26406 14.6304C2.01002 14.7151 1.72993 14.649 1.54058 14.4596C1.35123 14.2703 1.28511 13.9902 1.3698 13.7361L1.54803 13.2014M2.79878 14.4522L1.54803 13.2014" stroke="#2C364E" stroke-width="1.5"/>
</g>
<defs>
<clipPath id="clip0_1_1895">
<rect width="16" height="16" fill="white"/>
</clipPath>
</defs>
</svg>
