<svg width="14" height="14" viewBox="0 0 14 14" fill="none" xmlns="http://www.w3.org/2000/svg">
<path id="Vector" d="M5.25 5.1275V8.8725C5.25 9.1525 5.3725 9.35667 5.6175 9.485C5.8625 9.61333 6.10167 9.60167 6.335 9.45L9.24 7.595C9.46167 7.46667 9.5725 7.26833 9.5725 7C9.5725 6.73167 9.46167 6.53333 9.24 6.405L6.335 4.55C6.10167 4.39833 5.8625 4.38667 5.6175 4.515C5.3725 4.64333 5.25 4.8475 5.25 5.1275ZM7 14C6.03167 14 5.12167 13.8164 4.27 13.4491C3.41833 13.0818 2.6775 12.583 2.0475 11.9525C1.4175 11.3225 0.918867 10.5817 0.5516 9.73C0.184333 8.87833 0.000466667 7.96833 0 7C0 6.03167 0.183867 5.12167 0.5516 4.27C0.919333 3.41833 1.41797 2.6775 2.0475 2.0475C2.6775 1.4175 3.41833 0.918634 4.27 0.550901C5.12167 0.183167 6.03167 -0.000465779 7 8.872e-07C7.96833 8.872e-07 8.87833 0.183868 9.73 0.551601C10.5817 0.919334 11.3225 1.41797 11.9525 2.0475C12.5825 2.6775 13.0814 3.41833 13.4491 4.27C13.8168 5.12167 14.0005 6.03167 14 7C14 7.96833 13.8161 8.87833 13.4484 9.73C13.0807 10.5817 12.582 11.3225 11.9525 11.9525C11.3225 12.5825 10.5817 13.0814 9.73 13.4491C8.87833 13.8168 7.96833 14.0005 7 14ZM7 12.6C8.55167 12.6 9.87303 12.0547 10.9641 10.9641C12.0552 9.8735 12.6005 8.55213 12.6 7C12.6 5.44833 12.0547 4.12697 10.9641 3.0359C9.8735 1.94483 8.55213 1.39953 7 1.4C5.44833 1.4 4.12697 1.9453 3.0359 3.0359C1.94483 4.1265 1.39953 5.44787 1.4 7C1.4 8.55167 1.9453 9.87303 3.0359 10.9641C4.1265 12.0552 5.44787 12.6005 7 12.6Z" fill="#051539"/>
</svg>
