<svg width="28" height="28" viewBox="0 0 28 28" fill="none" xmlns="http://www.w3.org/2000/svg">
<g id="Bold / Essentional, UI / Share Circle">
<g id="Vector">
<path d="M10.5003 7C10.5003 8.933 12.0673 10.5 14.0003 10.5C15.9333 10.5 17.5003 8.933 17.5003 7C17.5003 5.067 15.9333 3.5 14.0003 3.5C12.0673 3.5 10.5003 5.067 10.5003 7Z" fill="#051539"/>
<path d="M2.91699 21C2.91699 22.933 4.484 24.5 6.41699 24.5C8.34999 24.5 9.91699 22.933 9.91699 21C9.91699 19.067 8.34999 17.5 6.41699 17.5C4.484 17.5 2.91699 19.067 2.91699 21Z" fill="#051539"/>
<path d="M21.5837 24.5C19.6507 24.5 18.0837 22.933 18.0837 21C18.0837 19.067 19.6507 17.5 21.5837 17.5C23.5167 17.5 25.0837 19.067 25.0837 21C25.0837 22.933 23.5167 24.5 21.5837 24.5Z" fill="#051539"/>
<path d="M8.40578 8.82269C8.7681 8.50291 8.80257 7.94997 8.48279 7.58765C8.16301 7.22534 7.61007 7.19086 7.24776 7.51064C5.12988 9.3799 3.79199 12.1176 3.79199 15.1667C3.79199 15.6499 4.18374 16.0417 4.66699 16.0417C5.15024 16.0417 5.54199 15.6499 5.54199 15.1667C5.54199 12.6405 6.64832 10.3738 8.40578 8.82269Z" fill="#051539"/>
<path d="M20.7529 7.51064C20.3906 7.19086 19.8376 7.22534 19.5179 7.58765C19.1981 7.94997 19.2326 8.50291 19.5949 8.82269C21.3523 10.3738 22.4587 12.6405 22.4587 15.1667C22.4587 15.6499 22.8504 16.0417 23.3337 16.0417C23.8169 16.0417 24.2087 15.6499 24.2087 15.1667C24.2087 12.1176 22.8708 9.3799 20.7529 7.51064Z" fill="#051539"/>
<path d="M11.8851 23.3586C11.4171 23.2382 10.9401 23.5199 10.8196 23.9879C10.6992 24.4559 10.9809 24.9329 11.4489 25.0534C12.2653 25.2635 13.1204 25.375 14.0003 25.375C14.8802 25.375 15.7353 25.2635 16.5518 25.0534C17.0198 24.9329 17.3015 24.4559 17.181 23.9879C17.0606 23.5199 16.5836 23.2382 16.1156 23.3586C15.4404 23.5324 14.7318 23.625 14.0003 23.625C13.2688 23.625 12.5602 23.5324 11.8851 23.3586Z" fill="#051539"/>
</g>
</g>
</svg>
