<svg width="15" height="14" viewBox="0 0 15 14" fill="none" xmlns="http://www.w3.org/2000/svg">
<g id="solar:star-bold">
<path id="Vector" d="M5.9071 3.15499C6.64618 1.82966 7.01543 1.16699 7.56784 1.16699C8.12026 1.16699 8.48951 1.82966 9.22859 3.15499L9.41993 3.49799C9.62993 3.87483 9.73493 4.06324 9.89826 4.18749C10.0616 4.31174 10.2658 4.35783 10.6741 4.44999L11.0451 4.53399C12.4801 4.85891 13.197 5.02108 13.3679 5.56999C13.5383 6.11833 13.0494 6.69058 12.0712 7.83449L11.818 8.13024C11.5403 8.45516 11.4009 8.61791 11.3385 8.81857C11.2761 9.01982 11.2971 9.23682 11.3391 9.67024L11.3776 10.0652C11.5252 11.5917 11.5993 12.3547 11.1524 12.6937C10.7056 13.0332 10.0336 12.7234 8.69076 12.1051L8.34251 11.9452C7.96101 11.7691 7.77026 11.6816 7.56784 11.6816C7.36543 11.6816 7.17468 11.7691 6.79318 11.9452L6.44551 12.1051C5.1021 12.7234 4.4301 13.0326 3.98385 12.6942C3.53643 12.3547 3.61051 11.5917 3.7581 10.0652L3.7966 9.67083C3.8386 9.23682 3.8596 9.01983 3.7966 8.81916C3.73476 8.61791 3.59535 8.45516 3.31768 8.13083L3.06451 7.83449C2.08626 6.69116 1.59743 6.11891 1.76776 5.56999C1.93868 5.02108 2.65618 4.85833 4.09118 4.53399L4.46218 4.44999C4.86993 4.35783 5.07351 4.31174 5.23743 4.18749C5.40076 4.06324 5.50576 3.87483 5.71576 3.49799L5.9071 3.15499Z" fill="white"/>
</g>
</svg>
