<svg width="20" height="20" viewBox="0 0 20 20" fill="none" xmlns="http://www.w3.org/2000/svg">
<g id="Linear / Astronomy / Star Circle" clip-path="url(#clip0_1_768)">
<circle id="Vector" cx="10.0003" cy="10.0003" r="8.33333" stroke="#8A9BB1" stroke-width="1.5"/>
<path id="Vector_2" d="M8.81349 6.83715C9.34126 5.89038 9.60515 5.41699 9.99967 5.41699C10.3942 5.41699 10.6581 5.89038 11.1859 6.83715L11.3224 7.08209C11.4724 7.35113 11.5474 7.48565 11.6643 7.57441C11.7812 7.66317 11.9268 7.69612 12.2181 7.76201L12.4832 7.822C13.5081 8.05389 14.0205 8.16983 14.1424 8.56188C14.2643 8.95393 13.915 9.36244 13.2163 10.1795L13.0355 10.3908C12.837 10.623 12.7377 10.7391 12.6931 10.8827C12.6484 11.0263 12.6634 11.1812 12.6934 11.491L12.7208 11.773C12.8264 12.8631 12.8792 13.4081 12.56 13.6504C12.2409 13.8927 11.7611 13.6718 10.8015 13.23L10.5532 13.1157C10.2805 12.9901 10.1442 12.9273 9.99967 12.9273C9.85515 12.9273 9.71881 12.9901 9.44613 13.1157L9.19787 13.23C8.23829 13.6718 7.7585 13.8927 7.43932 13.6504C7.12014 13.4081 7.17296 12.8631 7.27859 11.773L7.30592 11.491C7.33594 11.1812 7.35094 11.0263 7.30628 10.8827C7.26162 10.7391 7.16235 10.623 6.96381 10.3908L6.78305 10.1795C6.08436 9.36244 5.73502 8.95393 5.85693 8.56188C5.97885 8.16983 6.49128 8.05389 7.51615 7.822L7.78129 7.76201C8.07253 7.69612 8.21815 7.66317 8.33507 7.57441C8.45199 7.48565 8.52698 7.35113 8.67695 7.08209L8.81349 6.83715Z" stroke="#8A9BB1"/>
</g>
<defs>
<clipPath id="clip0_1_768">
<rect width="20" height="20" fill="white"/>
</clipPath>
</defs>
</svg>
