<svg width="14" height="14" viewBox="0 0 14 14" fill="none" xmlns="http://www.w3.org/2000/svg">
<g id="ph:user">
<path id="Vector" d="M12.6281 11.5933C11.7952 10.1534 10.5117 9.12086 9.01377 8.63141C9.75469 8.19033 10.3303 7.51823 10.6523 6.71833C10.9743 5.91842 11.0248 5.03494 10.7961 4.20356C10.5673 3.37217 10.072 2.63886 9.38618 2.11623C8.70034 1.5936 7.8619 1.31055 6.99963 1.31055C6.13735 1.31055 5.29892 1.5936 4.61308 2.11623C3.92724 2.63886 3.43192 3.37217 3.20319 4.20356C2.97446 5.03494 3.02496 5.91842 3.34693 6.71833C3.66891 7.51823 4.24456 8.19033 4.98549 8.63141C3.4876 9.12032 2.20408 10.1528 1.37119 11.5933C1.34065 11.6431 1.32039 11.6985 1.31161 11.7563C1.30283 11.814 1.30571 11.873 1.32007 11.9296C1.33444 11.9862 1.36 12.0394 1.39525 12.086C1.4305 12.1326 1.47472 12.1716 1.52531 12.2009C1.5759 12.2301 1.63183 12.2489 1.68981 12.2561C1.74778 12.2634 1.80661 12.259 1.86284 12.2431C1.91908 12.2272 1.97156 12.2003 2.01721 12.1638C2.06285 12.1274 2.10073 12.0821 2.12861 12.0308C3.15893 10.2502 4.98002 9.18703 6.99963 9.18703C9.01924 9.18703 10.8403 10.2502 11.8706 12.0308C11.8985 12.0821 11.9364 12.1274 11.982 12.1638C12.0277 12.2003 12.0802 12.2272 12.1364 12.2431C12.1926 12.259 12.2515 12.2634 12.3095 12.2561C12.3674 12.2489 12.4234 12.2301 12.4739 12.2009C12.5245 12.1716 12.5688 12.1326 12.604 12.086C12.6393 12.0394 12.6648 11.9862 12.6792 11.9296C12.6936 11.873 12.6964 11.814 12.6876 11.7563C12.6789 11.6985 12.6586 11.6431 12.6281 11.5933ZM3.93713 5.24953C3.93713 4.64383 4.11674 4.05173 4.45325 3.5481C4.78977 3.04448 5.26806 2.65195 5.82766 2.42015C6.38726 2.18836 7.00303 2.12771 7.59709 2.24588C8.19116 2.36405 8.73685 2.65572 9.16514 3.08402C9.59344 3.51232 9.88512 4.058 10.0033 4.65207C10.1215 5.24614 10.0608 5.8619 9.82901 6.4215C9.59722 6.9811 9.20469 7.4594 8.70106 7.79591C8.19744 8.13242 7.60533 8.31203 6.99963 8.31203C6.18767 8.31117 5.40922 7.98823 4.83507 7.41409C4.26093 6.83995 3.938 6.06149 3.93713 5.24953Z" fill="#263238"/>
</g>
</svg>
