<svg width="28" height="28" viewBox="0 0 28 28" fill="none" xmlns="http://www.w3.org/2000/svg">
<g id="Bold / Users / User Circle">
<path id="Vector" fill-rule="evenodd" clip-rule="evenodd" d="M25.6668 14C25.6668 20.4433 20.4435 25.6666 14.0002 25.6666C7.55684 25.6666 2.3335 20.4433 2.3335 14C2.3335 7.55666 7.55684 2.33331 14.0002 2.33331C20.4435 2.33331 25.6668 7.55666 25.6668 14ZM17.5002 10.5C17.5002 12.433 15.9332 14 14.0002 14C12.0672 14 10.5002 12.433 10.5002 10.5C10.5002 8.56698 12.0672 6.99998 14.0002 6.99998C15.9332 6.99998 17.5002 8.56698 17.5002 10.5ZM14.0001 23.9166C16.0815 23.9166 18.0132 23.2754 19.6082 22.1797C20.3127 21.6958 20.6138 20.7739 20.2042 20.0237C19.3551 18.4686 17.6054 17.5 14.0001 17.5C10.3948 17.5 8.64512 18.4686 7.79599 20.0237C7.38638 20.7738 7.68745 21.6957 8.39195 22.1796C9.98704 23.2754 11.9187 23.9166 14.0001 23.9166Z" fill="#051539"/>
</g>
</svg>
