<svg width="14" height="15" viewBox="0 0 14 15" fill="none" xmlns="http://www.w3.org/2000/svg">
<path id="Vector" d="M5.25 5.6275V9.3725C5.25 9.6525 5.3725 9.85667 5.6175 9.985C5.8625 10.1133 6.10167 10.1017 6.335 9.95L9.24 8.095C9.46167 7.96667 9.5725 7.76833 9.5725 7.5C9.5725 7.23167 9.46167 7.03333 9.24 6.905L6.335 5.05C6.10167 4.89833 5.8625 4.88667 5.6175 5.015C5.3725 5.14333 5.25 5.3475 5.25 5.6275ZM7 14.5C6.03167 14.5 5.12167 14.3164 4.27 13.9491C3.41833 13.5818 2.6775 13.083 2.0475 12.4525C1.4175 11.8225 0.918867 11.0817 0.5516 10.23C0.184333 9.37833 0.000466667 8.46833 0 7.5C0 6.53167 0.183867 5.62167 0.5516 4.77C0.919333 3.91833 1.41797 3.1775 2.0475 2.5475C2.6775 1.9175 3.41833 1.41863 4.27 1.0509C5.12167 0.683167 6.03167 0.499534 7 0.500001C7.96833 0.500001 8.87833 0.683868 9.73 1.0516C10.5817 1.41933 11.3225 1.91797 11.9525 2.5475C12.5825 3.1775 13.0814 3.91833 13.4491 4.77C13.8168 5.62167 14.0005 6.53167 14 7.5C14 8.46833 13.8161 9.37833 13.4484 10.23C13.0807 11.0817 12.582 11.8225 11.9525 12.4525C11.3225 13.0825 10.5817 13.5814 9.73 13.9491C8.87833 14.3168 7.96833 14.5005 7 14.5ZM7 13.1C8.55167 13.1 9.87303 12.5547 10.9641 11.4641C12.0552 10.3735 12.6005 9.05213 12.6 7.5C12.6 5.94833 12.0547 4.62697 10.9641 3.5359C9.8735 2.44483 8.55213 1.89953 7 1.9C5.44833 1.9 4.12697 2.4453 3.0359 3.5359C1.94483 4.6265 1.39953 5.94787 1.4 7.5C1.4 9.05167 1.9453 10.373 3.0359 11.4641C4.1265 12.5552 5.44787 13.1005 7 13.1Z" fill="#051539"/>
</svg>
