<svg width="16" height="16" viewBox="0 0 16 16" fill="none" xmlns="http://www.w3.org/2000/svg">
<g id="Bold / Money / Wallet Money">
<g id="Vector">
<path fill-rule="evenodd" clip-rule="evenodd" d="M13.6067 6.5737C13.5703 6.57138 13.5306 6.5714 13.4895 6.57141L13.4793 6.57141H11.8674C10.5388 6.57141 9.40191 7.62545 9.40191 8.99998C9.40191 10.3745 10.5388 11.4286 11.8674 11.4286H13.4793L13.4895 11.4286C13.5306 11.4286 13.5703 11.4286 13.6067 11.4263C14.1464 11.3919 14.6236 10.9663 14.6638 10.3718C14.6664 10.3328 14.6664 10.2908 14.6663 10.2518L14.6663 10.2413V7.75872L14.6663 7.74814C14.6664 7.7092 14.6664 7.66718 14.6638 7.62819C14.6236 7.03368 14.1464 6.60804 13.6067 6.5737ZM11.7244 9.6476C12.0665 9.6476 12.3438 9.35765 12.3438 8.99998C12.3438 8.64231 12.0665 8.35236 11.7244 8.35236C11.3824 8.35236 11.1051 8.64231 11.1051 8.99998C11.1051 9.35765 11.3824 9.6476 11.7244 9.6476Z" fill="#051539"/>
<path fill-rule="evenodd" clip-rule="evenodd" d="M13.4891 12.4C13.5849 12.3975 13.6574 12.4869 13.6314 12.5799C13.5024 13.0413 13.2977 13.4345 12.9692 13.7657C12.4883 14.2503 11.8785 14.4654 11.1252 14.5675C10.3931 14.6667 9.45778 14.6667 8.27689 14.6666H6.91925C5.73836 14.6667 4.80301 14.6667 4.07099 14.5675C3.31762 14.4654 2.70786 14.2503 2.22698 13.7657C1.7461 13.281 1.5327 12.6664 1.43141 11.9072C1.33299 11.1694 1.333 10.2267 1.33301 9.03652V8.96344C1.333 7.77328 1.33299 6.83058 1.43141 6.0928C1.53269 5.33352 1.7461 4.71896 2.22698 4.23431C2.70786 3.74966 3.31762 3.53457 4.07099 3.43249C4.80301 3.3333 5.73836 3.3333 6.91925 3.33331L8.27689 3.33331C9.45778 3.3333 10.3931 3.33329 11.1252 3.43249C11.8785 3.53457 12.4883 3.74965 12.9692 4.23431C13.2977 4.56542 13.5024 4.95867 13.6314 5.42006C13.6574 5.51304 13.5849 5.60249 13.4891 5.59998L11.8673 5.59999C10.0446 5.59999 8.43799 7.05124 8.43799 8.99998C8.43799 10.9487 10.0446 12.4 11.8673 12.4L13.4891 12.4ZM3.74265 5.92379C3.47649 5.92379 3.26072 6.14125 3.26072 6.4095C3.26072 6.67776 3.47649 6.89522 3.74265 6.89522H6.31293C6.57909 6.89522 6.79486 6.67776 6.79486 6.4095C6.79486 6.14125 6.57909 5.92379 6.31293 5.92379H3.74265Z" fill="#051539"/>
<path d="M5.18413 2.6829L6.49 1.72082C7.1913 1.20414 8.14138 1.20414 8.84268 1.72082L10.1554 2.68796C9.60655 2.66662 8.9936 2.66663 8.32159 2.66665H6.87456C6.26049 2.66663 5.69574 2.66662 5.18413 2.6829Z" fill="#051539"/>
</g>
</g>
</svg>
